<svg width="65" height="65" viewBox="0 0 65 65" fill="none" xmlns="http://www.w3.org/2000/svg">
<path d="M32.4914 64.9984C31.5293 65.0163 30.7246 64.6717 30.0453 63.9945C20.3746 54.3237 10.6998 44.657 1.0311 34.9862C-0.333366 33.6218 -0.349301 31.586 1.01715 30.2076C4.02295 27.1759 7.09249 24.206 10.0624 21.1404C16.6059 14.3859 23.3525 7.82848 29.9716 1.1476C31.4835 -0.378205 33.4834 -0.382189 35.0012 1.13366C41.3694 7.49583 47.7773 13.8202 54.0837 20.2421C57.3186 23.5347 60.5993 26.7776 63.8381 30.0662C65.3361 31.588 65.352 33.5899 63.8342 35.1058C57.225 41.7169 50.6098 48.3261 43.9987 54.9353C41.0208 57.9132 38.0429 60.8891 35.063 63.865C34.3538 64.5781 33.5272 65.0303 32.4914 64.9984ZM37.7122 40.2887C40.6881 40.2887 43.662 40.2808 46.638 40.2967C47.0961 40.2987 47.4367 40.1652 47.7634 39.8366C50.0202 37.5578 52.285 35.289 54.5698 33.0382C54.9522 32.6617 54.9522 32.4366 54.5678 32.0641C52.2651 29.8352 50.0661 27.4966 47.7256 25.3055C47.4208 25.0207 47.118 24.8852 46.6997 24.8852C40.71 24.8952 34.7203 24.8972 28.7326 24.8813C28.153 24.8793 27.9638 25.0466 27.9678 25.6362C27.9877 30.2714 27.9877 34.9066 27.9678 39.5417C27.9658 40.1294 28.149 40.3047 28.7307 40.3007C31.7225 40.2748 34.7183 40.2887 37.7122 40.2887ZM19.9204 22.6284C19.7093 22.8176 19.5758 22.9252 19.4563 23.0447C16.4505 26.0465 13.4527 29.0583 10.4329 32.0462C10.0306 32.4426 10.0465 32.6736 10.4389 33.0621C13.4447 36.038 16.4286 39.0338 19.4224 42.0217C19.5519 42.1512 19.6495 42.3404 19.9204 42.3543C19.9204 35.8149 19.9204 29.2834 19.9204 22.6284ZM25.8045 16.7244C25.9141 16.7423 25.9898 16.7662 26.0635 16.7662C30.2724 16.7682 34.4793 16.7702 38.6882 16.7662C38.8157 16.7662 38.997 16.824 39.0508 16.6706C39.1125 16.4953 38.9253 16.4077 38.8217 16.3061C36.8318 14.3122 34.8299 12.3282 32.8539 10.3204C32.5053 9.96581 32.3161 10.0614 32.0213 10.3602C30.0652 12.3342 28.0952 14.2942 26.1312 16.2603C26.0097 16.3798 25.8523 16.4734 25.8045 16.7244ZM32.5213 48.2962C30.4935 48.2962 28.4637 48.2942 26.436 48.2982C26.2687 48.2982 26.0396 48.2185 25.9519 48.3839C25.8484 48.5771 26.0854 48.6767 26.1989 48.7882C28.149 50.7443 30.1091 52.6904 32.0492 54.6564C32.3878 55.001 32.6069 54.993 32.9416 54.6524C34.8697 52.7003 36.8158 50.7702 38.752 48.8261C38.8775 48.7006 39.1344 48.593 39.0328 48.3799C38.9571 48.2185 38.7161 48.2982 38.5488 48.2982C36.539 48.2942 34.5291 48.2962 32.5213 48.2962Z" fill="#46F7AD"/>
</svg>
