<svg width="378" height="550" viewBox="0 0 378 550" fill="none" xmlns="http://www.w3.org/2000/svg">
<rect x="354" width="3.33673" height="493.836" fill="#46F7AD" fill-opacity="0.27"/>
<path d="M337.25 289.45C337.25 288.767 336.819 288.129 336.131 287.902L335.723 289.076L335.804 286.871C335.804 286.866 335.804 286.861 335.804 286.856C335.804 286.646 335.638 286.472 335.428 286.464C335.212 286.456 335.031 286.625 335.023 286.842L334.982 287.953C334.371 288.217 334 288.817 334 289.451C334 290.6 335.158 291.39 336.223 290.967C336.861 290.714 337.25 290.1 337.25 289.45Z" fill="#46F7AD"/>
<path d="M348.437 291.823C348.437 293.365 349.683 294.615 351.219 294.615C352.755 294.615 354 293.365 354 291.823C354 290.281 352.755 289.03 351.219 289.03C349.683 289.03 348.437 290.281 348.437 291.823ZM352.137 291.823C352.137 292.332 351.726 292.745 351.219 292.745C350.711 292.745 350.3 292.332 350.3 291.823C350.3 291.313 350.711 290.9 351.219 290.9C351.726 290.9 352.137 291.313 352.137 291.823Z" fill="#46F7AD"/>
<path d="M348.437 282.306C348.437 283.848 349.683 285.098 351.219 285.098C352.755 285.098 354 283.848 354 282.306C354 280.763 352.755 279.513 351.219 279.513C349.683 279.513 348.437 280.763 348.437 282.306ZM352.137 282.306C352.137 282.815 351.726 283.228 351.219 283.228C350.711 283.228 350.3 282.815 350.3 282.306C350.3 281.796 350.711 281.383 351.219 281.383C351.726 281.383 352.137 281.796 352.137 282.306Z" fill="#46F7AD"/>
<path d="M346.39 280.141C343.829 279.946 342.782 282.306 342.782 282.306L341.652 282.873L340.918 283.058L340.918 282.323C340.918 281.957 340.62 281.646 340.256 281.653C339.902 281.66 339.618 281.95 339.618 282.306L339.618 283.895C339.618 283.968 339.63 284.039 339.654 284.107C339.471 283.97 339.232 283.914 338.994 283.974C338.574 284.079 338.318 284.507 338.423 284.929L339.088 287.694L338.972 287.694C338.377 287.694 337.895 288.178 337.895 288.775L337.895 290.756C337.895 291.353 338.377 291.838 338.972 291.838L344.472 291.838L344.472 292.782C344.472 292.513 344.255 292.295 343.987 292.295L339.402 292.295C339.134 292.295 338.917 292.513 338.917 292.782L338.917 296.348C338.917 296.617 339.134 296.835 339.402 296.835L343.987 296.835C344.255 296.835 344.472 296.617 344.472 296.348L344.472 295.088C344.472 295.29 344.636 295.455 344.837 295.455L346.448 295.455C346.649 295.455 346.813 295.29 346.813 295.088L346.813 294.632C347.602 295.877 348.881 296.741 350.345 296.989C350.806 297.067 351.225 296.706 351.225 296.237C351.225 295.863 350.955 295.548 350.589 295.485C348.848 295.183 347.518 293.656 347.518 291.822C347.518 289.771 349.181 288.103 351.225 288.106L351.225 286.022C350.64 286.023 350.049 285.886 349.5 285.595L349.5 286.252C349.407 286.113 349.276 285.997 349.113 285.922L345.147 284.089C344.578 283.827 343.915 284.183 343.819 284.806L343.375 287.694L342.033 287.694C341.997 287.856 342.044 288.133 341.808 288.349L340.14 289.876L341.368 288.05C341.438 287.946 341.482 287.827 341.497 287.703C341.87 284.557 341.856 284.728 341.856 284.639C341.856 284.245 341.563 283.905 341.165 283.857C340.734 283.806 340.344 284.114 340.292 284.546L339.961 287.326L338.839 288.994L339.411 287.452L339.762 284.509C339.848 283.782 340.515 283.236 341.238 283.329C341.697 283.388 342.07 283.677 342.257 284.067L346.732 282.94C347.022 282.868 347.23 282.608 347.23 282.308C347.229 280.103 349.013 278.309 351.207 278.305L351.219 278.305C351.578 278.305 351.869 278.013 351.869 277.653C351.869 277.297 351.586 277.008 351.234 277C351.227 277 351.22 277 351.214 277C349.068 277 347.216 278.292 346.39 280.141ZM346.813 287.372C346.813 287.17 346.649 287.006 346.448 287.006L345.392 287.006L345.494 286.337L348.166 287.572C347.629 287.961 347.169 288.451 346.813 289.013L346.813 287.372Z" fill="#46F7AD"/>
<rect x="17.9008" width="3.33673" height="493.836" fill="#46F7AD" fill-opacity="0.27"/>
<rect x="54.6048" width="3.33673" height="439.336" fill="#46F7AD" fill-opacity="0.27"/>
<path d="M103.441 400.589C103.964 400.614 104.477 400.744 104.95 400.97C105.423 401.196 105.846 401.515 106.195 401.906L109.663 402.075L109.817 398.918L106.649 397.644L100.18 397.329C100.036 397.322 99.9012 397.258 99.8045 397.151C99.7078 397.044 99.6574 396.903 99.6644 396.759L99.8413 393.129L97.9497 393.037L97.4052 404.212L99.2967 404.304C99.3623 403.265 99.8336 402.292 100.609 401.597C101.384 400.902 102.401 400.54 103.441 400.589Z" fill="white"/>
<path d="M100.775 396.301L104.961 396.505L103.676 393.316L100.927 393.182L100.775 396.301Z" fill="white"/>
<path d="M94.4613 386.968L54.0703 385L53.4728 397.262L93.8638 399.23L94.4613 386.968Z" fill="white"/>
<path d="M109.598 403.174L106.912 403.043C107.058 403.394 107.153 403.766 107.193 404.145L108.486 404.208C108.703 404.215 108.92 404.178 109.123 404.1C109.333 404.022 109.525 403.901 109.687 403.746C109.849 403.591 109.978 403.403 110.064 403.196L109.598 403.174Z" fill="white"/>
<path d="M66.7695 399.043L60.6345 398.744C61.4118 399.063 62.0683 399.62 62.5099 400.335C62.919 400.996 63.1235 401.764 63.0977 402.541L63.9552 402.583C64.005 401.807 64.2831 401.063 64.7546 400.445C65.2619 399.776 65.9671 399.286 66.7695 399.043Z" fill="white"/>
<path d="M58.0067 398.616L53.4165 398.392L53.3436 399.889L54.7055 399.955C54.6183 400.154 54.5592 400.364 54.5297 400.579L54.3156 402.119L55.1858 402.162C55.2356 401.386 55.5137 400.642 55.9852 400.024C56.4933 399.352 57.2011 398.859 58.0067 398.616Z" fill="white"/>
<path d="M80.7437 399.724L69.3944 399.171C70.1717 399.489 70.8282 400.047 71.2698 400.762C71.6789 401.423 71.8834 402.191 71.8575 402.968L72.7277 403.01L72.6643 401.457C72.6559 401.239 72.6175 401.025 72.5501 400.818L77.4429 401.056C77.3557 401.255 77.2965 401.466 77.2671 401.681L77.053 403.221L77.9231 403.263C77.9729 402.487 78.2511 401.743 78.7225 401.125C79.2316 400.456 79.9391 399.965 80.7437 399.724Z" fill="white"/>
<path d="M89.5071 400.151L83.3722 399.852C84.1495 400.17 84.806 400.728 85.2476 401.443C85.6567 402.104 85.8612 402.872 85.8353 403.649L86.6991 403.691C86.7489 402.915 87.0271 402.171 87.4985 401.553C88.0042 400.885 88.7071 400.395 89.5071 400.151Z" fill="white"/>
<path d="M92.137 400.279C92.883 400.585 93.5178 401.112 93.9569 401.79C94.3959 402.467 94.6182 403.262 94.5942 404.069L96.3344 404.154L96.5128 400.492L92.137 400.279Z" fill="white"/>
<path d="M102.474 392.169L97.6267 388.914L95.9999 388.834L95.4896 399.309L96.5741 399.362L96.9125 392.417C96.9195 392.273 96.9833 392.137 97.09 392.041C97.1966 391.944 97.3373 391.893 97.4812 391.9L102.475 392.144L102.474 392.169Z" fill="white"/>
<path d="M59.6158 399.568L58.9411 399.535C58.2532 399.586 57.6065 399.883 57.1187 400.371C56.6309 400.86 56.3345 401.508 56.2834 402.196C56.2834 402.196 56.2812 402.241 56.28 402.266C56.2616 402.643 56.3176 403.02 56.4448 403.376C56.572 403.732 56.7679 404.059 57.0213 404.338C57.2747 404.618 57.5807 404.845 57.9217 405.006C58.2627 405.168 58.6322 405.26 59.0089 405.279C59.3856 405.297 59.7623 405.241 60.1174 405.113C60.4725 404.986 60.7991 404.79 61.0785 404.536C61.3579 404.282 61.5846 403.976 61.7458 403.634C61.9069 403.293 61.9993 402.923 62.0177 402.545C62.0177 402.545 62.0199 402.501 62.0211 402.476C62.0368 401.783 61.8022 401.107 61.3603 400.572C60.9185 400.038 60.2991 399.682 59.6158 399.568ZM59.0987 403.435C58.9638 403.428 58.8314 403.395 58.7092 403.337C58.5871 403.28 58.4775 403.198 58.3867 403.098C58.2959 402.998 58.2257 402.881 58.1802 402.753C58.1346 402.626 58.1145 402.491 58.1211 402.356C58.1211 402.356 58.1233 402.311 58.1245 402.286C58.1573 402.029 58.2858 401.794 58.4843 401.627C58.6828 401.46 58.9367 401.375 59.1953 401.387C59.454 401.4 59.6984 401.51 59.8797 401.695C60.0611 401.88 60.166 402.127 60.1737 402.386C60.1737 402.386 60.1715 402.43 60.1703 402.455C60.1571 402.727 60.0369 402.983 59.8362 403.166C59.6354 403.35 59.3703 403.446 59.0987 403.435Z" fill="white"/>
<path d="M68.3807 399.995L67.706 399.962C67.0181 400.013 66.3714 400.31 65.8836 400.799C65.3958 401.287 65.0994 401.935 65.0483 402.624C65.0483 402.624 65.0461 402.668 65.0449 402.693C65.0078 403.455 65.2744 404.2 65.7862 404.765C66.298 405.33 67.0129 405.669 67.7738 405.706C68.5347 405.743 69.2791 405.476 69.8434 404.963C70.4076 404.45 70.7455 403.734 70.7826 402.973C70.7826 402.973 70.7848 402.928 70.786 402.903C70.8017 402.21 70.567 401.534 70.1252 401C69.6834 400.465 69.064 400.109 68.3807 399.995ZM67.8636 403.862C67.7287 403.855 67.5963 403.822 67.4741 403.764C67.352 403.707 67.2424 403.625 67.1516 403.525C67.0608 403.425 66.9906 403.308 66.9451 403.18C66.8995 403.053 66.8794 402.918 66.886 402.783C66.886 402.783 66.8882 402.739 66.8894 402.713C66.9222 402.456 67.0507 402.221 67.2492 402.054C67.4477 401.887 67.7016 401.802 67.9602 401.815C68.2189 401.827 68.4633 401.937 68.6446 402.122C68.8259 402.307 68.9309 402.554 68.9386 402.813C68.9386 402.813 68.9364 402.857 68.9352 402.883C68.922 403.154 68.8018 403.41 68.6011 403.594C68.4003 403.777 68.1352 403.874 67.8636 403.862Z" fill="white"/>
<path d="M82.3787 400.677L81.6788 400.643C80.9909 400.694 80.3442 400.991 79.8564 401.479C79.3686 401.968 79.0722 402.615 79.0211 403.304C79.0211 403.304 79.0189 403.349 79.0177 403.374C78.9806 404.136 79.2472 404.881 79.759 405.446C80.2707 406.011 80.9857 406.349 81.7466 406.386C82.5074 406.424 83.2519 406.156 83.8162 405.644C84.3804 405.131 84.7183 404.415 84.7554 403.653C84.7554 403.653 84.7576 403.609 84.7588 403.584C84.7751 402.894 84.5439 402.222 84.1072 401.688C83.6704 401.155 83.0572 400.796 82.3787 400.677ZM81.8616 404.544C81.7267 404.537 81.5943 404.504 81.4721 404.447C81.35 404.389 81.2404 404.307 81.1496 404.207C81.0588 404.107 80.9886 403.99 80.9431 403.862C80.8975 403.735 80.8774 403.6 80.884 403.465C80.884 403.465 80.8862 403.421 80.8874 403.395C80.9202 403.138 81.0487 402.903 81.2472 402.736C81.4457 402.57 81.6996 402.484 81.9582 402.497C82.2169 402.509 82.4612 402.619 82.6426 402.804C82.8239 402.989 82.9289 403.236 82.9366 403.495C82.9366 403.495 82.9344 403.539 82.9332 403.565C82.9266 403.701 82.8928 403.835 82.8338 403.959C82.7748 404.083 82.6919 404.193 82.5897 404.284C82.4876 404.375 82.3684 404.445 82.2391 404.489C82.1097 404.534 81.9728 404.552 81.8364 404.543L81.8616 404.544Z" fill="white"/>
<path d="M91.1178 401.103L90.4431 401.07C89.7552 401.121 89.1084 401.418 88.6206 401.906C88.1329 402.395 87.8364 403.043 87.7854 403.731C87.7854 403.731 87.7832 403.776 87.782 403.801C87.7448 404.563 88.0115 405.308 88.5233 405.873C89.035 406.438 89.75 406.776 90.5109 406.814C91.2717 406.851 92.0162 406.583 92.5804 406.071C93.1447 405.558 93.4826 404.842 93.5197 404.08C93.5197 404.08 93.5218 404.036 93.5231 404.011C93.5387 403.317 93.3041 402.642 92.8623 402.107C92.4205 401.573 91.8011 401.216 91.1178 401.103ZM90.6007 404.97C90.4657 404.963 90.3334 404.93 90.2112 404.872C90.089 404.815 89.9794 404.733 89.8886 404.633C89.7979 404.533 89.7277 404.416 89.6821 404.288C89.6366 404.161 89.6165 404.026 89.6231 403.891C89.6231 403.891 89.6252 403.846 89.6265 403.821C89.6593 403.564 89.7878 403.328 89.9862 403.162C90.1847 402.995 90.4386 402.91 90.6973 402.922C90.9559 402.935 91.2003 403.045 91.3817 403.23C91.563 403.415 91.668 403.662 91.6757 403.921C91.6757 403.921 91.6735 403.965 91.6723 403.99C91.659 404.262 91.5389 404.518 91.3381 404.701C91.1374 404.885 90.8722 404.981 90.6007 404.97Z" fill="white"/>
<path d="M103.682 401.715L103.007 401.682C102.319 401.733 101.673 402.03 101.185 402.519C100.697 403.007 100.401 403.655 100.349 404.344C100.349 404.344 100.347 404.388 100.346 404.413C100.309 405.175 100.576 405.92 101.087 406.485C101.599 407.05 102.314 407.389 103.075 407.426C103.836 407.463 104.58 407.196 105.145 406.683C105.709 406.171 106.047 405.455 106.084 404.693C106.084 404.693 106.086 404.648 106.087 404.623C106.103 403.93 105.868 403.254 105.426 402.72C104.985 402.185 104.365 401.829 103.682 401.715ZM103.165 405.582C103.03 405.575 102.898 405.542 102.775 405.484C102.653 405.427 102.544 405.345 102.453 405.245C102.362 405.145 102.292 405.028 102.246 404.9C102.201 404.773 102.181 404.638 102.187 404.503C102.187 404.503 102.189 404.459 102.191 404.433C102.223 404.176 102.352 403.941 102.55 403.774C102.749 403.607 103.003 403.522 103.261 403.535C103.52 403.547 103.764 403.657 103.946 403.842C104.127 404.027 104.232 404.274 104.24 404.533C104.24 404.533 104.238 404.577 104.236 404.603C104.23 404.738 104.197 404.87 104.139 404.993C104.081 405.115 104 405.225 103.9 405.316C103.8 405.407 103.683 405.477 103.556 405.522C103.428 405.568 103.293 405.588 103.159 405.582L103.165 405.582Z" fill="white"/>
<path d="M61.8196 143.299L61.8196 144.74C60.2538 144.697 59 143.453 59 141.925C59 140.396 60.2547 139.152 61.8196 139.109L61.8196 140.55C61.0736 140.591 60.4821 141.19 60.4821 141.925C60.4821 142.658 61.0736 143.258 61.8196 143.299ZM61.9033 169.43C60.3 169.43 59.0004 168.169 59.0004 166.614C59.0004 165.058 60.3 163.797 61.9033 163.797C63.5062 163.797 64.8062 165.058 64.8062 166.614C64.8062 168.169 63.5062 169.43 61.9033 169.43ZM61.9033 167.99C62.6873 167.99 63.3228 167.373 63.3228 166.614C63.3228 165.853 62.6873 165.236 61.9033 165.236C61.1193 165.236 60.4838 165.853 60.4838 166.614C60.4838 167.373 61.1193 167.99 61.9033 167.99ZM63.1071 175L61.7924 175C61.5167 175 61.2945 174.783 61.2945 174.516L61.2954 170.349C61.493 170.378 61.6975 170.394 61.9033 170.394C64.0559 170.394 65.7994 168.7 65.7994 166.614C65.7994 164.525 64.0559 162.832 61.9033 162.832C61.6966 162.832 61.4951 162.847 61.2971 162.878L61.2997 145.718L61.5814 145.718C62.0397 145.718 62.412 145.357 62.412 144.912L62.412 138.949C62.412 138.504 62.0405 138.144 61.5814 138.144L61.3006 138.144L61.2937 134.483C61.2937 134.216 61.5172 134 61.7924 134L63.1062 134C63.3815 134 63.6041 134.217 63.6041 134.483L63.6067 135.147L78.0033 135.177C78.5539 135.177 79 135.609 79 136.144L79 159.511C79 160.044 78.5539 160.477 78.0033 160.477L65.3602 160.477C64.7497 160.528 64.7674 161.443 65.4141 161.443L68.7126 161.445C69.1376 161.445 69.5661 161.678 69.5907 162.204L74.4045 162.206C74.8636 162.206 75.2351 162.567 75.2351 163.011L75.2355 163.065L75.2355 169.011C75.2355 169.679 75.0025 170.064 74.4045 170.414L69.592 173.042C69.592 173.605 69.151 173.852 68.7126 173.852C68.7057 173.853 63.6072 173.853 63.6072 173.853L63.6046 174.517C63.6054 174.784 63.3819 175 63.1071 175ZM70.1196 171.545L73.5511 169.677C73.8837 169.48 73.9096 169.385 73.9096 169.116L73.9087 164.828C73.9087 164.562 73.6857 164.345 73.4108 164.345L70.1196 164.345C69.8444 164.345 69.6213 164.562 69.6213 164.828L69.6213 171.332C69.6209 171.599 69.8439 171.694 70.1196 171.545Z" fill="#EDF7FF"/>
<rect x="278.166" width="3.33673" height="439.336" fill="#46F7AD" fill-opacity="0.27"/>
<g filter="url(#filter0_b_376_6485)">
<rect x="36.7388" y="403.267" width="265.826" height="72.2958" rx="20.0204" transform="rotate(3.1068 36.7388 403.267)" fill="#264863"/>
<rect x="37.7891" y="404.438" width="263.602" height="70.0713" rx="18.9081" transform="rotate(3.1068 37.7891 404.438)" stroke="#EDF7FF" stroke-width="2.22449"/>
</g>
<g filter="url(#filter1_b_376_6485)">
<rect y="477.705" width="377.051" height="72.2958" rx="20.0204" transform="rotate(-0.167246 0 477.705)" fill="#EDF7FF"/>
<rect x="1.11549" y="478.814" width="374.826" height="70.0713" rx="18.9081" transform="rotate(-0.167246 1.11549 478.814)" stroke="#264863" stroke-width="2.22449"/>
</g>
<circle cx="57.9409" cy="419.317" r="3.33673" fill="#46F7AD"/>
<circle cx="19.0124" cy="493.837" r="3.33673" fill="#46F7AD"/>
<circle cx="354.91" cy="493.837" r="3.33673" fill="#46F7AD"/>
<circle cx="280.39" cy="432.663" r="3.33673" fill="#46F7AD"/>
<path d="M88.5948 450.915L91.9804 451.091L96.5678 437.403L99.6045 451.487L103.15 451.672L108.913 432.859L105.607 432.688L101.463 446.585L98.4095 432.313L95.4771 432.161L91.0441 445.964L88.4661 431.796L84.8406 431.608L88.5948 450.915ZM115.456 452.579C119.028 452.764 121.484 451.288 122.09 448.38L118.971 448.217C118.66 449.564 117.607 450.285 115.661 450.184C113.262 450.059 112.006 448.497 112.037 445.852L122.247 446.383L122.295 445.45C122.555 440.465 119.542 438.25 116.077 438.07C112.105 437.863 108.996 440.589 108.772 444.907L108.761 445.12C108.532 449.519 111.351 452.365 115.456 452.579ZM112.203 443.696C112.635 441.553 114.009 440.315 115.955 440.416C117.954 440.52 119.125 441.65 119.16 444.057L112.203 443.696ZM124.882 452.801L128.108 452.969L129.168 432.576L125.943 432.408L124.882 452.801ZM138.13 453.758C141.916 453.954 144.459 451.815 144.866 448.628L141.907 448.474C141.618 450.437 140.099 451.374 138.393 451.285C136.02 451.162 134.61 449.485 134.768 446.446L134.779 446.233C134.929 443.354 136.591 441.729 138.803 441.844C140.509 441.933 141.695 442.77 141.865 444.65L144.984 444.812C144.81 440.954 141.977 439.416 138.884 439.256C134.992 439.053 131.701 441.689 131.471 446.114L131.46 446.327C131.229 450.779 134.132 453.55 138.13 453.758ZM153.727 452.056C151.275 451.928 149.955 450.069 150.103 447.216L150.114 447.003C150.264 444.124 151.82 442.468 154.219 442.592C156.619 442.717 157.967 444.551 157.817 447.43L157.807 447.617C157.659 450.469 156.127 452.181 153.727 452.056ZM153.57 454.56C157.676 454.774 160.888 452.107 161.114 447.762L161.125 447.549C161.347 443.284 158.43 440.272 154.351 440.06C150.246 439.846 147.03 442.566 146.806 446.885L146.795 447.098C146.574 451.336 149.465 454.347 153.57 454.56ZM163.67 454.818L166.895 454.986L167.329 446.642C167.44 444.509 168.962 443.519 170.561 443.602C172.134 443.684 172.995 444.611 172.888 446.663L172.44 455.274L175.666 455.442L176.1 447.098C176.21 444.965 177.732 443.975 179.332 444.058C180.931 444.141 181.765 445.067 181.658 447.119L181.211 455.73L184.436 455.898L184.895 447.074C185.095 443.235 183.097 441.554 180.538 441.421C178.805 441.331 176.845 442.004 175.689 443.682C175.086 441.913 173.687 441.065 171.874 440.971C169.821 440.864 168.244 441.905 167.509 443.176L167.62 441.044L164.395 440.876L163.67 454.818ZM194.258 456.676C197.83 456.861 200.286 455.385 200.892 452.476L197.773 452.314C197.462 453.661 196.409 454.382 194.463 454.28C192.064 454.156 190.808 452.594 190.839 449.949L201.049 450.48L201.098 449.547C201.357 444.562 198.344 442.347 194.879 442.167C190.907 441.96 187.798 444.685 187.574 449.004L187.563 449.217C187.334 453.616 190.153 456.462 194.258 456.676ZM191.005 447.792C191.437 445.65 192.811 444.411 194.757 444.513C196.756 444.617 197.927 445.747 197.962 448.154L191.005 447.792ZM214.035 457.436L217.607 457.622L218.453 441.361L223.758 441.637L223.903 438.838L209.721 438.1L209.576 440.899L214.881 441.175L214.035 457.436ZM229.848 456.013C227.396 455.886 226.076 454.026 226.224 451.174L226.235 450.96C226.385 448.081 227.941 446.425 230.34 446.55C232.739 446.674 234.087 448.509 233.938 451.388L233.928 451.574C233.78 454.427 232.247 456.138 229.848 456.013ZM229.691 458.518C233.796 458.731 237.009 456.065 237.235 451.719L237.246 451.506C237.468 447.241 234.55 444.229 230.472 444.017C226.366 443.804 223.151 446.523 222.927 450.842L222.915 451.055C222.695 455.294 225.586 458.304 229.691 458.518Z" fill="#EDF7FF"/>
<path d="M60.6613 523.142C65.1992 523.113 68.441 520.77 68.9722 516.175L65.5021 516.197C65.1456 518.895 63.2856 520.242 60.6429 520.259C57.1194 520.281 55.0479 517.758 55.0204 513.461L55.0191 513.247C54.9918 508.976 57.164 506.346 60.5274 506.325C63.2768 506.307 64.6999 507.606 65.1164 510.14L68.72 510.117C68.2643 505.635 64.8603 503.468 60.4826 503.496C55.1707 503.53 51.2456 507.559 51.2822 513.298L51.2836 513.511C51.321 519.384 54.682 523.18 60.6613 523.142ZM71.8231 522.803L75.0529 522.783L75.0005 514.561C74.9864 512.346 76.4473 511.215 78.2625 511.204C80.1844 511.191 81.0447 512.147 81.0582 514.256L81.1123 522.744L84.3422 522.724L84.2862 513.942C84.2617 510.098 82.276 508.482 79.4732 508.5C77.1776 508.515 75.6367 509.672 74.978 511.038L74.9227 502.363L71.6928 502.383L71.8231 522.803ZM94.2044 522.928C97.7813 522.905 100.147 521.288 100.582 518.349L97.4587 518.369C97.2271 519.732 96.2177 520.512 94.2691 520.525C91.8667 520.54 90.5225 519.054 90.3989 516.412L100.622 516.347L100.616 515.412C100.585 510.421 97.4484 508.385 93.9783 508.407C90.001 508.433 87.0564 511.335 87.084 515.659L87.0854 515.872C87.1135 520.277 90.0936 522.954 94.2044 522.928ZM90.4385 514.249C90.745 512.085 92.0447 510.769 93.9933 510.756C95.9953 510.744 97.23 511.804 97.4054 514.205L90.4385 514.249ZM103.547 522.601L106.777 522.581L106.734 515.72L112.009 522.547L115.746 522.523L109.826 515.007L115.203 508.566L111.68 508.588L106.727 514.759L106.647 502.16L103.417 502.181L103.547 522.601ZM117.963 522.509L121.193 522.489L121.149 515.628L126.425 522.455L130.162 522.431L124.241 514.915L129.619 508.474L126.095 508.496L121.143 514.667L121.062 502.068L117.833 502.089L117.963 522.509ZM132.458 522.417L135.688 522.396L135.599 508.436L132.369 508.456L132.458 522.417ZM133.93 506.15C134.997 506.144 135.846 505.337 135.84 504.296C135.833 503.229 134.974 502.433 133.906 502.44C132.838 502.447 131.989 503.253 131.996 504.321C132.003 505.362 132.862 506.157 133.93 506.15ZM144.378 522.581C145.366 522.575 146.059 522.41 146.565 522.22L146.548 519.657C146.096 519.847 145.616 519.93 144.975 519.934C143.961 519.941 143.37 519.384 143.362 518.156L143.315 510.815L146.385 510.796L146.37 508.367L143.3 508.386L143.28 505.317L140.05 505.337L140.07 508.407L138.201 508.419L138.217 510.848L140.085 510.836L140.134 518.47C140.151 521.113 141.602 522.599 144.378 522.581ZM162.594 522.491C166.812 522.465 169.598 519.857 169.577 516.547C169.553 512.73 167.222 511.464 162.734 510.878C159.421 510.419 158.775 509.649 158.765 508.101C158.756 506.633 159.87 505.585 162.033 505.571C164.221 505.557 165.375 506.404 165.734 508.403L168.991 508.383C168.594 504.728 166.126 502.875 162.016 502.901C158.038 502.927 155.384 505.293 155.404 508.416C155.427 511.993 157.598 513.367 162.166 513.952C165.266 514.439 166.151 515.101 166.162 516.863C166.173 518.625 164.686 519.809 162.577 519.822C159.347 519.843 158.563 518.246 158.311 516.326L154.894 516.347C155.184 519.949 157.389 522.525 162.594 522.491ZM177.326 522.397C179.595 522.383 181.056 521.279 181.741 519.913L181.755 522.102L184.985 522.082L184.896 508.121L181.666 508.142L181.719 516.443C181.733 518.659 180.219 519.79 178.484 519.801C176.615 519.813 175.728 518.857 175.715 516.749L175.66 508.18L172.43 508.201L172.487 517.143C172.511 520.853 174.576 522.415 177.326 522.397ZM188.845 526.835L192.075 526.815L192.031 519.848C192.787 521.204 194.395 522.289 196.611 522.274C200.215 522.251 202.786 519.512 202.758 515.028L202.756 514.814C202.728 510.303 200.015 507.731 196.518 507.753C194.463 507.766 192.736 508.979 191.97 510.318L191.956 508.076L188.726 508.097L188.845 526.835ZM195.794 519.717C193.445 519.732 191.914 518.274 191.894 515.15L191.893 514.937C191.873 511.84 193.465 510.309 195.707 510.294C197.816 510.281 199.427 511.792 199.447 514.889L199.448 515.102C199.467 518.092 198.169 519.702 195.794 519.717ZM205.737 526.728L208.967 526.707L208.923 519.74C209.679 521.097 211.287 522.181 213.503 522.167C217.106 522.144 219.678 519.404 219.65 514.92L219.648 514.706C219.62 510.195 216.907 507.623 213.41 507.646C211.355 507.659 209.627 508.871 208.862 510.211L208.847 507.968L205.618 507.989L205.737 526.728ZM212.686 519.609C210.337 519.624 208.806 518.166 208.786 515.043L208.784 514.829C208.765 511.733 210.357 510.201 212.599 510.187C214.708 510.173 216.319 511.685 216.339 514.781L216.34 514.994C216.359 517.984 215.061 519.594 212.686 519.609ZM222.679 521.841L225.908 521.821L225.778 501.4L222.548 501.421L222.679 521.841ZM231.424 526.564L234.6 526.543L242.089 507.756L238.939 507.776L235.579 516.794L231.812 507.822L228.315 507.844L233.92 520.355L231.424 526.564ZM259.584 521.873C264.122 521.844 267.363 519.501 267.895 514.906L264.425 514.928C264.068 517.626 262.208 518.973 259.565 518.99C256.042 519.012 253.97 516.49 253.943 512.192L253.941 511.978C253.914 507.707 256.086 505.078 259.45 505.056C262.199 505.039 263.622 506.338 264.039 508.871L267.642 508.848C267.187 504.366 263.783 502.199 259.405 502.227C254.093 502.261 250.168 506.29 250.205 512.029L250.206 512.242C250.243 518.115 253.604 521.911 259.584 521.873ZM270.745 521.535L273.975 521.514L273.923 513.292C273.909 511.077 275.37 509.946 277.185 509.935C279.107 509.923 279.967 510.878 279.981 512.987L280.035 521.475L283.265 521.455L283.209 512.673C283.184 508.829 281.198 507.213 278.396 507.231C276.1 507.246 274.559 508.403 273.9 509.769L273.845 501.094L270.615 501.114L270.745 521.535ZM290.644 521.675C292.78 521.661 294.003 520.879 294.903 519.672L294.914 521.38L298.09 521.36L298.032 512.204C298.007 508.387 295.543 507.122 292.42 507.142C289.297 507.161 286.717 508.539 286.47 511.798L289.593 511.778C289.745 510.389 290.567 509.583 292.249 509.572C294.144 509.56 294.791 510.49 294.803 512.358L294.807 513.079L293.072 513.09C289.068 513.116 285.926 514.31 285.947 517.567C285.965 520.477 288.082 521.691 290.644 521.675ZM291.404 519.347C289.802 519.358 289.156 518.588 289.149 517.413C289.138 515.705 290.709 515.134 293.165 515.118L294.82 515.108L294.829 516.496C294.84 518.284 293.379 519.335 291.404 519.347ZM301.872 521.336L305.102 521.315L305.013 507.355L301.783 507.375L301.872 521.336ZM303.343 505.07C304.411 505.063 305.26 504.257 305.254 503.216C305.247 502.148 304.387 501.353 303.32 501.359C302.252 501.366 301.403 502.172 301.41 503.24C301.416 504.281 302.276 505.077 303.343 505.07ZM309.039 521.29L312.269 521.27L312.216 513.048C312.202 510.833 313.663 509.702 315.478 509.691C317.4 509.678 318.261 510.634 318.274 512.743L318.328 521.231L321.558 521.21L321.502 512.428C321.478 508.585 319.492 506.969 316.689 506.987C314.393 507.001 312.853 508.159 312.194 509.525L312.18 507.309L308.95 507.33L309.039 521.29Z" fill="#153853"/>
<defs>
<filter id="filter0_b_376_6485" x="29.4266" y="399.873" width="276.141" height="93.3844" filterUnits="userSpaceOnUse" color-interpolation-filters="sRGB">
<feFlood flood-opacity="0" result="BackgroundImageFix"/>
<feGaussianBlur in="BackgroundImage" stdDeviation="2.22449"/>
<feComposite in2="SourceAlpha" operator="in" result="effect1_backgroundBlur_376_6485"/>
<feBlend mode="normal" in="SourceGraphic" in2="effect1_backgroundBlur_376_6485" result="shape"/>
</filter>
<filter id="filter1_b_376_6485" x="-4.39062" y="472.214" width="386.041" height="82.1774" filterUnits="userSpaceOnUse" color-interpolation-filters="sRGB">
<feFlood flood-opacity="0" result="BackgroundImageFix"/>
<feGaussianBlur in="BackgroundImage" stdDeviation="2.22449"/>
<feComposite in2="SourceAlpha" operator="in" result="effect1_backgroundBlur_376_6485"/>
<feBlend mode="normal" in="SourceGraphic" in2="effect1_backgroundBlur_376_6485" result="shape"/>
</filter>
</defs>
</svg>
