<svg width="77" height="78" viewBox="0 0 77 78" fill="none" xmlns="http://www.w3.org/2000/svg">
<path d="M17.6459 6.91406C11.5501 6.91406 6.41678 12.0474 6.41678 18.1432V59.8516C6.41678 65.9474 11.5501 71.0807 17.6459 71.0807H51.3334L70.5835 51.8307V18.1432C70.5835 12.0474 65.4501 6.91406 59.3543 6.91406H17.6459ZM18.6084 13.3307H58.7126C61.9209 13.3307 64.4876 15.8974 64.4876 19.1057V48.6224H59.6751C53.5793 48.6224 48.4459 53.7557 48.4459 59.8516V64.6641H18.6084C15.4001 64.6641 12.8334 62.0974 12.8334 58.8891V19.1057C12.8334 15.8974 15.4001 13.3307 18.6084 13.3307Z" fill="#242424"/>
<path d="M43.505 48.0469H40.2967V44.8385H43.505V48.0469ZM40.2967 36.8177H37.0883V44.8385H40.2967V36.8177ZM53.13 33.6094H49.9217V40.026H53.13V33.6094ZM49.9217 30.401H46.7133V33.6094H49.9217V30.401ZM30.6717 33.6094H27.4633V36.8177H30.6717V33.6094ZM27.4633 30.401H24.255V33.6094H27.4633V30.401ZM38.6925 22.3802H41.9008V19.1719H38.6925V22.3802ZM26.6613 21.5781V26.3906H31.4738V21.5781H26.6613ZM32.2758 28.7969H25.8592C24.9769 28.7969 24.255 28.075 24.255 27.1927V20.776C24.255 19.8937 24.9769 19.1719 25.8592 19.1719H32.2758C33.1581 19.1719 33.88 19.8937 33.88 20.776V27.1927C33.88 28.075 33.1581 28.7969 32.2758 28.7969ZM26.6613 40.8281V45.6406H31.4738V40.8281H26.6613ZM32.2758 48.0469H25.8592C24.9769 48.0469 24.255 47.325 24.255 46.4427V40.026C24.255 39.1437 24.9769 38.4219 25.8592 38.4219H32.2758C33.1581 38.4219 33.88 39.1437 33.88 40.026V46.4427C33.88 47.325 33.1581 48.0469 32.2758 48.0469ZM45.9113 21.5781V26.3906H50.7238V21.5781H45.9113ZM51.5258 28.7969H45.1092C44.2269 28.7969 43.505 28.075 43.505 27.1927V20.776C43.505 19.8937 44.2269 19.1719 45.1092 19.1719H51.5258C52.4081 19.1719 53.13 19.8937 53.13 20.776V27.1927C53.13 28.075 52.4081 28.7969 51.5258 28.7969ZM49.9217 44.8385V40.026H43.505V43.2344H46.7133V48.0469H53.13V44.8385H49.9217ZM46.7133 33.6094H40.2967V36.8177H46.7133V33.6094ZM40.2967 30.401H30.6717V33.6094H33.88V36.8177H37.0883V33.6094H40.2967V30.401ZM41.9008 28.7969V25.5885H38.6925V22.3802H35.4842V28.7969H41.9008ZM30.2706 22.7812H27.8644V25.1875H30.2706V22.7812ZM30.2706 42.0312H27.8644V44.4375H30.2706V42.0312ZM49.5206 22.7812H47.1144V25.1875H49.5206V22.7812Z" fill="#242424"/>
</svg>
