<svg width="727" height="717" viewBox="0 0 727 717" fill="none" xmlns="http://www.w3.org/2000/svg">
<path d="M-354.006 322.226C-303.307 228.263 -140.28 23.2087 106.239 -45.3111C352.758 -113.831 497.033 -300.133 538.355 -384.719" stroke="#F0F4FF"/>
<path d="M-321.903 484.027C-271.205 390.065 -108.178 185.011 138.341 116.491C384.861 47.9709 529.135 -138.331 570.458 -222.917" stroke="#F0F4FF"/>
<path d="M-345.976 362.662C-295.278 268.699 -132.251 63.6448 114.269 -4.87503C360.788 -73.3949 505.063 -259.697 546.385 -344.283" stroke="#F0F4FF"/>
<path d="M-313.879 524.483C-263.181 430.521 -100.154 225.466 146.366 156.946C392.885 88.4265 537.159 -97.8758 578.482 -182.462" stroke="#F0F4FF"/>
<path d="M-337.952 403.117C-287.253 309.154 -124.226 104.1 122.293 35.58C368.812 -32.9398 513.087 -219.242 554.409 -303.828" stroke="#F0F4FF"/>
<path d="M-305.855 564.938C-255.156 470.976 -92.1293 265.921 154.39 197.401C400.909 128.881 545.184 -57.4208 586.506 -142.007" stroke="#F0F4FF"/>
<path d="M-329.927 443.572C-279.229 349.61 -116.202 144.555 130.317 76.0353C376.837 7.51551 521.111 -178.787 562.433 -263.373" stroke="#F0F4FF"/>
<path d="M-297.831 605.394C-247.132 511.431 -84.1054 306.377 162.414 237.857C408.933 169.337 553.208 -16.9651 594.53 -101.551" stroke="#F0F4FF"/>
</svg>
