<svg width="784" height="620" viewBox="0 0 784 620" fill="none" xmlns="http://www.w3.org/2000/svg">
<path d="M72.0104 818.888C122.709 724.925 285.736 519.871 532.255 451.351C778.774 382.831 923.049 196.529 964.371 111.943" stroke="#F0F4FF"/>
<path d="M104.113 980.689C154.811 886.727 317.838 681.673 564.358 613.153C810.877 544.633 955.151 358.331 996.474 273.745" stroke="#F0F4FF"/>
<path d="M80.0399 859.324C130.738 765.361 293.765 560.307 540.285 491.787C786.804 423.267 931.079 236.965 972.401 152.379" stroke="#F0F4FF"/>
<path d="M112.137 1021.15C162.836 927.183 325.862 722.128 572.382 653.608C818.901 585.089 963.176 398.786 1004.5 314.2" stroke="#F0F4FF"/>
<path d="M88.0642 899.779C138.763 805.816 301.79 600.762 548.309 532.242C794.828 463.722 939.103 277.42 980.425 192.834" stroke="#F0F4FF"/>
<path d="M120.161 1061.6C170.86 967.638 333.887 762.583 580.406 694.063C826.925 625.543 971.2 439.241 1012.52 354.655" stroke="#F0F4FF"/>
<path d="M96.0885 940.234C146.787 846.272 309.814 641.217 556.333 572.697C802.853 504.178 947.127 317.875 988.449 233.289" stroke="#F0F4FF"/>
<path d="M128.185 1102.06C178.884 1008.09 341.911 803.039 588.43 734.519C834.949 665.999 979.224 479.697 1020.55 395.111" stroke="#F0F4FF"/>
</svg>
