<svg width="784" height="620" viewBox="0 0 784 620" fill="none" xmlns="http://www.w3.org/2000/svg">
<path d="M711.99 818.888C661.291 724.925 498.264 519.871 251.745 451.351C5.22555 382.831 -139.049 196.529 -180.371 111.943" stroke="#F0F4FF"/>
<path d="M679.887 980.689C629.189 886.727 466.162 681.673 219.642 613.153C-26.8769 544.633 -171.151 358.331 -212.474 273.744" stroke="#F0F4FF"/>
<path d="M703.96 859.324C653.262 765.361 490.235 560.307 243.715 491.787C-2.80399 423.267 -147.079 236.965 -188.401 152.379" stroke="#F0F4FF"/>
<path d="M671.863 1021.14C621.164 927.183 458.138 722.128 211.618 653.608C-34.901 585.088 -179.176 398.786 -220.498 314.2" stroke="#F0F4FF"/>
<path d="M695.936 899.779C645.237 805.816 482.21 600.762 235.691 532.242C-10.8283 463.722 -155.103 277.42 -196.425 192.834" stroke="#F0F4FF"/>
<path d="M663.839 1061.6C613.14 967.638 450.113 762.583 203.594 694.063C-42.9253 625.543 -187.2 439.241 -228.522 354.655" stroke="#F0F4FF"/>
<path d="M687.911 940.234C637.213 846.272 474.186 641.217 227.667 572.697C-18.8526 504.178 -163.127 317.875 -204.449 233.289" stroke="#F0F4FF"/>
<path d="M655.815 1102.06C605.116 1008.09 442.089 803.039 195.57 734.519C-50.9495 665.999 -195.224 479.697 -236.546 395.111" stroke="#F0F4FF"/>
</svg>
