<svg width="727" height="717" viewBox="0 0 727 717" fill="none" xmlns="http://www.w3.org/2000/svg">
<path d="M1081.01 322.226C1030.31 228.263 867.28 23.2087 620.761 -45.3111C374.242 -113.831 229.967 -300.133 188.645 -384.719" stroke="#F0F4FF"/>
<path d="M1048.9 484.027C998.205 390.065 835.178 185.011 588.659 116.491C342.139 47.9709 197.865 -138.331 156.542 -222.918" stroke="#F0F4FF"/>
<path d="M1072.98 362.662C1022.28 268.699 859.251 63.6448 612.731 -4.87508C366.212 -73.3949 221.938 -259.697 180.615 -344.283" stroke="#F0F4FF"/>
<path d="M1040.88 524.483C990.181 430.521 827.154 225.466 580.634 156.946C334.115 88.4264 189.841 -97.8758 148.518 -182.462" stroke="#F0F4FF"/>
<path d="M1064.95 403.117C1014.25 309.154 851.226 104.1 604.707 35.58C358.188 -32.9398 213.913 -219.242 172.591 -303.828" stroke="#F0F4FF"/>
<path d="M1032.85 564.938C982.156 470.976 819.129 265.921 572.61 197.401C326.091 128.881 181.816 -57.4209 140.494 -142.007" stroke="#F0F4FF"/>
<path d="M1056.93 443.572C1006.23 349.61 843.202 144.555 596.683 76.0354C350.164 7.51554 205.889 -178.787 164.567 -263.373" stroke="#F0F4FF"/>
<path d="M1024.83 605.394C974.132 511.431 811.105 306.377 564.586 237.857C318.067 169.337 173.792 -16.9652 132.47 -101.551" stroke="#F0F4FF"/>
</svg>
