<svg width="48" height="48" viewBox="0 0 48 48" fill="none" xmlns="http://www.w3.org/2000/svg">
<path fill-rule="evenodd" clip-rule="evenodd" d="M15.341 3.99902H32.681C39.461 3.99902 44.001 8.75902 44.001 15.839V32.181C44.001 39.239 39.461 43.999 32.681 43.999H15.341C8.56098 43.999 4.00098 39.239 4.00098 32.181V15.839C4.00098 8.75902 8.56098 3.99902 15.341 3.99902ZM22.8613 29.9794L32.3613 20.4794C33.0413 19.7994 33.0413 18.6994 32.3613 17.9994C31.6813 17.3194 30.5613 17.3194 29.8813 17.9994L21.6213 26.2594L18.1213 22.7594C17.4413 22.0794 16.3213 22.0794 15.6413 22.7594C14.9613 23.4394 14.9613 24.5394 15.6413 25.2394L20.4013 29.9794C20.7413 30.3194 21.1813 30.4794 21.6213 30.4794C22.0813 30.4794 22.5213 30.3194 22.8613 29.9794Z" fill="#C1CADA"/>
</svg>
