<svg width="41" height="40" viewBox="0 0 41 40" fill="none" xmlns="http://www.w3.org/2000/svg">
<circle cx="20.002" cy="20" r="20" fill="#153853"/>
<path fill-rule="evenodd" clip-rule="evenodd" d="M16.777 25.9911L16.7785 25.9926C16.936 26.15 17.14 26.2281 17.3607 26.2281C17.6087 26.2281 17.8106 26.146 17.9641 25.9926L28.0038 15.9528C28.3248 15.6318 28.3408 15.0985 27.9988 14.7411C27.6701 14.418 27.1236 14.4196 26.7971 14.7461L18.0678 23.4754L17.3607 24.1825L16.6536 23.4754L12.9547 19.7765C12.6266 19.4484 12.0762 19.4484 11.748 19.7765C11.427 20.0976 11.4111 20.6312 11.7535 20.9886L16.777 25.9911ZM11.0409 21.6904C10.3223 20.9506 10.3223 19.7881 11.0409 19.0694C11.7596 18.3508 12.9432 18.3508 13.6618 19.0694L16.6536 22.0612L17.3607 22.7683L18.0678 22.0612L26.09 14.039C26.8087 13.3203 27.9923 13.3203 28.711 14.039C29.4296 14.7788 29.4296 15.9413 28.711 16.6599L18.6712 26.6997C18.3119 27.059 17.8468 27.2281 17.3607 27.2281C16.8957 27.2281 16.4307 27.059 16.0714 26.6997L11.0409 21.6904Z" fill="white"/>
<path d="M16.7785 25.9926L17.1321 25.639L17.1314 25.6383L16.7785 25.9926ZM16.777 25.9911L17.1299 25.6368L17.1298 25.6368L16.777 25.9911ZM17.9641 25.9926L18.3176 26.3461H18.3176L17.9641 25.9926ZM28.0038 15.9528L28.3574 16.3063V16.3063L28.0038 15.9528ZM27.9988 14.7411L28.3601 14.3955L28.3548 14.3899L28.3493 14.3845L27.9988 14.7411ZM26.7971 14.7461L26.4436 14.3925L26.4436 14.3925L26.7971 14.7461ZM18.0678 23.4754L17.7143 23.1219L18.0678 23.4754ZM17.3607 24.1825L17.0072 24.5361L17.3607 24.8896L17.7143 24.5361L17.3607 24.1825ZM16.6536 23.4754L17.0072 23.1219L17.0072 23.1219L16.6536 23.4754ZM12.9547 19.7765L13.3083 19.423L13.3083 19.423L12.9547 19.7765ZM11.748 19.7765L11.3945 19.423L11.3945 19.423L11.748 19.7765ZM11.7535 20.9886L11.3923 21.3346L11.4006 21.3429L11.7535 20.9886ZM11.0409 21.6904L10.6822 22.0388L10.6881 22.0446L11.0409 21.6904ZM11.0409 19.0694L11.3945 19.423H11.3945L11.0409 19.0694ZM13.6618 19.0694L13.3083 19.423L13.6618 19.0694ZM16.6536 22.0612L17.0072 21.7076L16.6536 22.0612ZM17.3607 22.7683L17.0072 23.1219L17.3607 23.4754L17.7143 23.1219L17.3607 22.7683ZM18.0678 22.0612L18.4214 22.4148L18.0678 22.0612ZM26.09 14.039L25.7365 13.6854L25.7365 13.6854L26.09 14.039ZM28.711 14.039L29.0696 13.6905L29.0645 13.6854L28.711 14.039ZM28.711 16.6599L29.0645 17.0134V17.0134L28.711 16.6599ZM18.6712 26.6997L18.3176 26.3461L18.6712 26.6997ZM16.0714 26.6997L16.4249 26.3461L16.4242 26.3454L16.0714 26.6997ZM17.1314 25.6383L17.1299 25.6368L16.4241 26.3453L16.4256 26.3468L17.1314 25.6383ZM17.3607 25.7281C17.2629 25.7281 17.1891 25.6961 17.1321 25.639L16.4249 26.3461C16.6828 26.604 17.0171 26.7281 17.3607 26.7281V25.7281ZM17.6105 25.639C17.5593 25.6902 17.4887 25.7281 17.3607 25.7281V26.7281C17.7288 26.7281 18.0619 26.6019 18.3176 26.3461L17.6105 25.639ZM27.6503 15.5992L17.6105 25.639L18.3176 26.3461L28.3574 16.3063L27.6503 15.5992ZM27.6375 15.0867C27.7947 15.251 27.7759 15.4737 27.6503 15.5992L28.3574 16.3063C28.8737 15.79 28.8869 14.9461 28.3601 14.3955L27.6375 15.0867ZM27.1507 15.0996C27.2828 14.9676 27.515 14.9667 27.6483 15.0977L28.3493 14.3845C27.8252 13.8693 26.9644 13.8717 26.4436 14.3925L27.1507 15.0996ZM18.4214 23.829L27.1507 15.0996L26.4436 14.3925L17.7143 23.1219L18.4214 23.829ZM17.7143 24.5361L18.4214 23.829L17.7143 23.1219L17.0072 23.829L17.7143 24.5361ZM16.3001 23.829L17.0072 24.5361L17.7143 23.829L17.0072 23.1219L16.3001 23.829ZM12.6012 20.1301L16.3001 23.829L17.0072 23.1219L13.3083 19.423L12.6012 20.1301ZM12.1016 20.1301C12.2344 19.9972 12.4683 19.9972 12.6012 20.1301L13.3083 19.423C12.7849 18.8996 11.9179 18.8996 11.3945 19.423L12.1016 20.1301ZM12.1146 20.6428C11.9572 20.4785 11.976 20.2557 12.1016 20.1301L11.3945 19.423C10.878 19.9395 10.865 20.7839 11.3924 21.3345L12.1146 20.6428ZM17.1298 25.6368L12.1063 20.6343L11.4006 21.3429L16.4242 26.3454L17.1298 25.6368ZM11.3996 21.342C10.8666 20.7933 10.8739 19.9436 11.3945 19.423L10.6874 18.7159C9.7707 19.6326 9.77795 21.1078 10.6823 22.0387L11.3996 21.342ZM11.3945 19.423C11.9179 18.8996 12.7849 18.8996 13.3083 19.423L14.0154 18.7159C13.1015 17.802 11.6013 17.802 10.6874 18.7159L11.3945 19.423ZM13.3083 19.423L16.3001 22.4148L17.0072 21.7076L14.0154 18.7159L13.3083 19.423ZM16.3001 22.4148L17.0072 23.1219L17.7143 22.4148L17.0072 21.7076L16.3001 22.4148ZM17.7143 23.1219L18.4214 22.4148L17.7143 21.7076L17.0072 22.4148L17.7143 23.1219ZM18.4214 22.4148L26.4436 14.3925L25.7365 13.6854L17.7143 21.7076L18.4214 22.4148ZM26.4436 14.3925C26.967 13.8692 27.834 13.8692 28.3574 14.3925L29.0645 13.6854C28.1506 12.7715 26.6504 12.7715 25.7365 13.6854L26.4436 14.3925ZM28.3523 14.3874C28.8853 14.936 28.878 15.7857 28.3574 16.3063L29.0645 17.0134C29.9812 16.0968 29.9739 14.6215 29.0696 13.6906L28.3523 14.3874ZM28.3574 16.3063L18.3176 26.3461L19.0247 27.0532L29.0645 17.0134L28.3574 16.3063ZM18.3176 26.3461C18.0612 26.6025 17.7278 26.7281 17.3607 26.7281V27.7281C17.9659 27.7281 18.5625 27.5155 19.0247 27.0532L18.3176 26.3461ZM17.3607 26.7281C17.0178 26.7281 16.6833 26.6045 16.4249 26.3461L15.7178 27.0532C16.1781 27.5135 16.7736 27.7281 17.3607 27.7281V26.7281ZM16.4242 26.3454L11.3937 21.3361L10.6881 22.0446L15.7186 27.054L16.4242 26.3454Z" fill="white"/>
</svg>
