<svg fill="none" height="80" viewBox="0 0 80 80" width="80" xmlns="http://www.w3.org/2000/svg"><path clip-rule="evenodd" d="m26.0333 6.66406h27.9367c10.2967 0 16.03 5.93334 16.03 16.10004v34.4333c0 10.3333-5.7333 16.1333-16.03 16.1333h-27.9367c-10.1333 0-16.0333-5.8-16.0333-16.1333v-34.4333c0-10.1667 5.9-16.10004 16.0333-16.10004zm.9001 15.53164v-.0333h9.9633c1.4367 0 2.6033 1.1666 2.6033 2.5966 0 1.47-1.1666 2.6367-2.6033 2.6367h-9.9633c-1.4367 0-2.6-1.1667-2.6-2.6s1.1633-2.6 2.6-2.6zm0 20.2667h26.1333c1.4333 0 2.6-1.1667 2.6-2.6s-1.1667-2.6033-2.6-2.6033h-26.1333c-1.4367 0-2.6 1.17-2.6 2.6033s1.1633 2.6 2.6 2.6zm-.0002 15.2341h26.1334c1.33-.1333 2.3333-1.27 2.3333-2.6 0-1.3666-1.0033-2.5-2.3333-2.6333h-26.1334c-1-.1-1.9666.3667-2.5 1.2333-.5333.8334-.5333 1.9334 0 2.8.5334.8334 1.5 1.3334 2.5 1.2z" fill="#feb930" fill-rule="evenodd"/></svg>