<svg width="20" height="20" viewBox="0 0 20 20" fill="none" xmlns="http://www.w3.org/2000/svg">
<path d="M9.35874 6.07413V2.73329C9.35874 2.37806 9.64208 2.08203 10.0004 2.08203C10.3212 2.08203 10.5931 2.33077 10.6361 2.64585L10.6421 2.73329V6.07413L14.6253 6.07439C16.6087 6.07439 18.2381 7.69852 18.3296 9.72404L18.3337 9.90377V14.1032C18.3337 16.1429 16.7609 17.8172 14.807 17.9112L14.6337 17.9154H5.36699C3.38366 17.9154 1.76207 16.2994 1.67102 14.2664L1.66699 14.086L1.66699 9.89517C1.66699 7.85545 3.23192 6.17304 5.18532 6.07857L5.35866 6.07439H9.35866V11.4097L8.02533 10.0329C7.77533 9.77469 7.36699 9.77469 7.11699 10.0329C6.99199 10.1619 6.93366 10.334 6.93366 10.5061C6.93366 10.6369 6.97099 10.7733 7.04993 10.8886L7.11699 10.9708L9.54199 13.4836C9.65866 13.6127 9.82533 13.6815 10.0003 13.6815C10.1392 13.6815 10.2781 13.6337 10.3881 13.5431L10.4503 13.4836L12.8753 10.9708C13.1253 10.7127 13.1253 10.291 12.8753 10.0329C12.6481 9.79816 12.2899 9.77683 12.0389 9.96885L11.967 10.0329L10.642 11.4097V6.07439L9.35874 6.07413Z" fill="#153853"/>
</svg>
