<svg width="25" height="30" viewBox="0 0 25 30" fill="none" xmlns="http://www.w3.org/2000/svg">
<rect opacity="0.3" x="4.5" y="2.87109" width="7" height="7.11111" rx="1.5" fill="#9593A0"/>
<path opacity="0.3" fill-rule="evenodd" clip-rule="evenodd" d="M13.5 4.37109C13.5 3.54267 14.1716 2.87109 15 2.87109H19C19.8284 2.87109 20.5 3.54267 20.5 4.37109V8.48221C20.5 9.31063 19.8284 9.9822 19 9.9822H15C14.1716 9.9822 13.5 9.31063 13.5 8.4822V4.37109ZM4.5 13.5139C4.5 12.6855 5.17157 12.0139 6 12.0139H10C10.8284 12.0139 11.5 12.6855 11.5 13.5139V17.625C11.5 18.4534 10.8284 19.125 10 19.125H6C5.17157 19.125 4.5 18.4534 4.5 17.625V13.5139ZM15 12.0139C14.1716 12.0139 13.5 12.6855 13.5 13.5139V17.625C13.5 18.4534 14.1716 19.125 15 19.125H19C19.8284 19.125 20.5 18.4534 20.5 17.625V13.5139C20.5 12.6855 19.8284 12.0139 19 12.0139H15Z" fill="#9593A0"/>
<path opacity="0.3" fill-rule="evenodd" clip-rule="evenodd" d="M6 21.1567C5.17157 21.1567 4.5 21.8283 4.5 22.6567V26.7679C4.5 27.5963 5.17157 28.2679 6 28.2679H10C10.8284 28.2679 11.5 27.5963 11.5 26.7679V22.6567C11.5 21.8283 10.8284 21.1567 10 21.1567H6ZM15 21.1567C14.1716 21.1567 13.5 21.8283 13.5 22.6567V26.7679C13.5 27.5963 14.1716 28.2679 15 28.2679H19C19.8284 28.2679 20.5 27.5963 20.5 26.7679V22.6567C20.5 21.8283 19.8284 21.1567 19 21.1567H15Z" fill="#9593A0"/>
</svg>
