<svg width="557" height="351" viewBox="0 0 557 351" fill="none" xmlns="http://www.w3.org/2000/svg">
<g filter="url(#filter0_dd_1475:2068)">
<rect x="5" y="1.5" width="547" height="340" rx="8" fill="white"/>
<path d="M40.558 43.5H41.748V41.4H43.134V40.406H41.748V33.49H40.124L35.546 41.008V41.4H40.558V43.5ZM37.086 40.406L40.558 34.414V40.406H37.086ZM48.3883 42.618C46.7223 42.618 45.6583 41.302 45.6583 38.768V38.208C45.6583 35.744 46.6663 34.344 48.3603 34.344C50.0543 34.344 51.0343 35.856 51.0343 38.18V38.74C51.0343 41.274 50.1383 42.618 48.3883 42.618ZM48.3883 43.626C50.8523 43.626 52.2663 41.666 52.2663 38.754V38.194C52.2663 35.338 50.8243 33.364 48.3603 33.364C45.9103 33.364 44.4123 35.268 44.4123 38.222V38.782C44.4123 41.694 45.9943 43.626 48.3883 43.626ZM58.5476 43.626C60.7876 43.626 62.3836 42.492 62.7336 40.182H61.5996C61.3476 41.806 60.2136 42.632 58.5756 42.632C56.4196 42.632 55.1316 41.092 55.1316 38.544V38.432C55.1316 35.912 56.5176 34.302 58.5896 34.302C60.2976 34.302 61.1796 35.086 61.4316 36.612H62.6356C62.4256 34.442 60.6616 33.336 58.5756 33.336C55.8596 33.336 53.8716 35.478 53.8716 38.446V38.558C53.8716 41.638 55.6496 43.626 58.5476 43.626Z" fill="#141414"/>
<path d="M39.06 103.626C41.132 103.626 42.616 102.534 42.616 100.714C42.616 99.328 41.86 98.502 40.684 98.194C41.594 97.816 42.266 97.144 42.266 96.01C42.266 94.624 41.16 93.364 39.256 93.364C37.352 93.364 36.05 94.666 35.98 96.248H37.044C37.17 95.114 38.01 94.358 39.256 94.358C40.474 94.358 41.076 95.086 41.076 96.038C41.076 97.13 40.502 97.746 39.2 97.746H38.5V98.768H39.256C40.67 98.768 41.37 99.426 41.37 100.714C41.37 101.89 40.656 102.646 39.088 102.646C37.506 102.646 36.792 101.736 36.68 100.546H35.56C35.63 102.296 36.932 103.626 39.06 103.626ZM47.3832 103.626C49.2872 103.626 50.8132 102.338 50.8132 100.224C50.8132 98.18 49.4972 96.906 47.7052 96.906C46.7532 96.906 46.0672 97.214 45.6612 97.592V94.54H50.2812V93.49H44.6532V98.852H45.1012C45.6332 98.25 46.3052 97.886 47.4672 97.886C48.7412 97.886 49.5672 98.81 49.5672 100.224C49.5672 101.736 48.7272 102.646 47.3692 102.646C45.8432 102.646 45.4092 101.89 45.2132 100.798H44.0512C44.1912 102.436 45.2272 103.626 47.3832 103.626ZM57.112 103.626C59.352 103.626 60.948 102.492 61.298 100.182H60.164C59.912 101.806 58.778 102.632 57.14 102.632C54.984 102.632 53.696 101.092 53.696 98.544V98.432C53.696 95.912 55.082 94.302 57.154 94.302C58.862 94.302 59.744 95.086 59.996 96.612H61.2C60.99 94.442 59.226 93.336 57.14 93.336C54.424 93.336 52.436 95.478 52.436 98.446V98.558C52.436 101.638 54.214 103.626 57.112 103.626Z" fill="#141414"/>
<path d="M39.06 163.626C41.132 163.626 42.616 162.534 42.616 160.714C42.616 159.328 41.86 158.502 40.684 158.194C41.594 157.816 42.266 157.144 42.266 156.01C42.266 154.624 41.16 153.364 39.256 153.364C37.352 153.364 36.05 154.666 35.98 156.248H37.044C37.17 155.114 38.01 154.358 39.256 154.358C40.474 154.358 41.076 155.086 41.076 156.038C41.076 157.13 40.502 157.746 39.2 157.746H38.5V158.768H39.256C40.67 158.768 41.37 159.426 41.37 160.714C41.37 161.89 40.656 162.646 39.088 162.646C37.506 162.646 36.792 161.736 36.68 160.546H35.56C35.63 162.296 36.932 163.626 39.06 163.626ZM48.2652 162.618C46.5992 162.618 45.5352 161.302 45.5352 158.768V158.208C45.5352 155.744 46.5432 154.344 48.2372 154.344C49.9312 154.344 50.9112 155.856 50.9112 158.18V158.74C50.9112 161.274 50.0152 162.618 48.2652 162.618ZM48.2652 163.626C50.7292 163.626 52.1432 161.666 52.1432 158.754V158.194C52.1432 155.338 50.7012 153.364 48.2372 153.364C45.7872 153.364 44.2892 155.268 44.2892 158.222V158.782C44.2892 161.694 45.8712 163.626 48.2652 163.626ZM58.4245 163.626C60.6645 163.626 62.2605 162.492 62.6105 160.182H61.4765C61.2245 161.806 60.0905 162.632 58.4525 162.632C56.2965 162.632 55.0085 161.092 55.0085 158.544V158.432C55.0085 155.912 56.3945 154.302 58.4665 154.302C60.1745 154.302 61.0565 155.086 61.3085 156.612H62.5125C62.3025 154.442 60.5385 153.336 58.4525 153.336C55.7365 153.336 53.7485 155.478 53.7485 158.446V158.558C53.7485 161.638 55.5265 163.626 58.4245 163.626Z" fill="#141414"/>
<path d="M35.266 223.5H41.972V222.506H37.142L39.9 219.818C41.132 218.614 41.916 217.41 41.916 216.178C41.916 214.456 40.74 213.364 38.892 213.364C36.988 213.364 35.798 214.61 35.644 216.57H36.778C36.974 215.002 37.73 214.344 38.892 214.344C40.026 214.344 40.684 215.016 40.684 216.136C40.684 217.158 40.152 218.068 39.242 219.034L35.266 223.22V223.5ZM46.686 223.626C48.59 223.626 50.116 222.338 50.116 220.224C50.116 218.18 48.8 216.906 47.008 216.906C46.056 216.906 45.37 217.214 44.964 217.592V214.54H49.584V213.49H43.956V218.852H44.404C44.936 218.25 45.608 217.886 46.77 217.886C48.044 217.886 48.87 218.81 48.87 220.224C48.87 221.736 48.03 222.646 46.672 222.646C45.146 222.646 44.712 221.89 44.516 220.798H43.354C43.494 222.436 44.53 223.626 46.686 223.626ZM56.4148 223.626C58.6548 223.626 60.2508 222.492 60.6008 220.182H59.4668C59.2148 221.806 58.0808 222.632 56.4428 222.632C54.2868 222.632 52.9988 221.092 52.9988 218.544V218.432C52.9988 215.912 54.3848 214.302 56.4568 214.302C58.1647 214.302 59.0468 215.086 59.2988 216.612H60.5028C60.2928 214.442 58.5288 213.336 56.4428 213.336C53.7268 213.336 51.7388 215.478 51.7388 218.446V218.558C51.7388 221.638 53.5168 223.626 56.4148 223.626Z" fill="#141414"/>
<path d="M35.266 283.5H41.972V282.506H37.142L39.9 279.818C41.132 278.614 41.916 277.41 41.916 276.178C41.916 274.456 40.74 273.364 38.892 273.364C36.988 273.364 35.798 274.61 35.644 276.57H36.778C36.974 275.002 37.73 274.344 38.892 274.344C40.026 274.344 40.684 275.016 40.684 276.136C40.684 277.158 40.152 278.068 39.242 279.034L35.266 283.22V283.5ZM43.018 283.5H49.724V282.506H44.894L47.652 279.818C48.884 278.614 49.668 277.41 49.668 276.178C49.668 274.456 48.492 273.364 46.644 273.364C44.74 273.364 43.55 274.61 43.396 276.57H44.53C44.726 275.002 45.482 274.344 46.644 274.344C47.778 274.344 48.436 275.016 48.436 276.136C48.436 277.158 47.904 278.068 46.994 279.034L43.018 283.22V283.5ZM55.9499 283.626C58.1899 283.626 59.7859 282.492 60.1359 280.182H59.0019C58.7499 281.806 57.6159 282.632 55.9779 282.632C53.8219 282.632 52.5339 281.092 52.5339 278.544V278.432C52.5339 275.912 53.9199 274.302 55.9919 274.302C57.6999 274.302 58.5819 275.086 58.8339 276.612H60.0379C59.8279 274.442 58.0639 273.336 55.9779 273.336C53.2619 273.336 51.2739 275.478 51.2739 278.446V278.558C51.2739 281.638 53.0519 283.626 55.9499 283.626Z" fill="#141414"/>
<rect x="74" y="31.5" width="40" height="251" fill="#F1F4FF"/>
<path d="M80.1487 308.5H81.2687V300.072L84.6987 308.5H85.0767L88.3947 300.072V308.5H89.6127V298.49H87.9327L84.9367 306.288L81.8427 298.49H80.1487V308.5ZM93.8889 308.626C94.9669 308.626 95.6249 308.262 96.1709 307.576V308.5H97.3329V303.67C97.3329 301.626 96.0589 301.052 94.6589 301.052C93.2449 301.052 91.9149 301.668 91.7609 303.334H92.9229C93.0349 302.438 93.5949 302.018 94.6029 302.018C95.7229 302.018 96.1709 302.508 96.1709 303.67V304.202H95.1209C93.2449 304.202 91.4529 304.776 91.4529 306.47C91.4529 307.968 92.5309 308.626 93.8889 308.626ZM94.0009 307.702C92.9789 307.702 92.6149 307.226 92.6149 306.47C92.6149 305.392 93.6929 305.028 95.1629 305.028H96.1709V305.938C96.1709 307.072 95.2329 307.702 94.0009 307.702ZM99.6155 308.5H100.777V304.482C100.777 302.676 101.715 302.214 103.185 302.144V301.052C101.869 301.094 101.239 301.668 100.777 302.494V301.178H99.6155V308.5ZM110.11 308.5H111.328V298.49H110.194L107.87 300.17V301.304L110.11 299.694V308.5Z" fill="#141414"/>
<rect x="142" y="94.5" width="40" height="192" fill="#F1F4FF"/>
<path d="M145.76 308.5H146.88V300.072L150.31 308.5H150.688L154.006 300.072V308.5H155.224V298.49H153.544L150.548 306.288L147.454 298.49H145.76V308.5ZM159.5 308.626C160.578 308.626 161.236 308.262 161.782 307.576V308.5H162.944V303.67C162.944 301.626 161.67 301.052 160.27 301.052C158.856 301.052 157.526 301.668 157.372 303.334H158.534C158.646 302.438 159.206 302.018 160.214 302.018C161.334 302.018 161.782 302.508 161.782 303.67V304.202H160.732C158.856 304.202 157.064 304.776 157.064 306.47C157.064 307.968 158.142 308.626 159.5 308.626ZM159.612 307.702C158.59 307.702 158.226 307.226 158.226 306.47C158.226 305.392 159.304 305.028 160.774 305.028H161.782V305.938C161.782 307.072 160.844 307.702 159.612 307.702ZM165.227 308.5H166.389V304.482C166.389 302.676 167.327 302.214 168.797 302.144V301.052C167.481 301.094 166.851 301.668 166.389 302.494V301.178H165.227V308.5ZM175.722 308.5H176.94V298.49H175.806L173.482 300.17V301.304L175.722 299.694V308.5Z" fill="#141414"/>
<rect x="210" y="35.5" width="40" height="251" fill="#F1F4FF"/>
<path d="M213.76 308.5H214.88V300.072L218.31 308.5H218.688L222.006 300.072V308.5H223.224V298.49H221.544L218.548 306.288L215.454 298.49H213.76V308.5ZM227.5 308.626C228.578 308.626 229.236 308.262 229.782 307.576V308.5H230.944V303.67C230.944 301.626 229.67 301.052 228.27 301.052C226.856 301.052 225.526 301.668 225.372 303.334H226.534C226.646 302.438 227.206 302.018 228.214 302.018C229.334 302.018 229.782 302.508 229.782 303.67V304.202H228.732C226.856 304.202 225.064 304.776 225.064 306.47C225.064 307.968 226.142 308.626 227.5 308.626ZM227.612 307.702C226.59 307.702 226.226 307.226 226.226 306.47C226.226 305.392 227.304 305.028 228.774 305.028H229.782V305.938C229.782 307.072 228.844 307.702 227.612 307.702ZM233.227 308.5H234.389V304.482C234.389 302.676 235.327 302.214 236.797 302.144V301.052C235.481 301.094 234.851 301.668 234.389 302.494V301.178H233.227V308.5ZM243.722 308.5H244.94V298.49H243.806L241.482 300.17V301.304L243.722 299.694V308.5Z" fill="#141414"/>
<rect x="278" y="35.5" width="40" height="251" fill="#F1F4FF"/>
<path d="M281.76 308.5H282.88V300.072L286.31 308.5H286.688L290.006 300.072V308.5H291.224V298.49H289.544L286.548 306.288L283.454 298.49H281.76V308.5ZM295.5 308.626C296.578 308.626 297.236 308.262 297.782 307.576V308.5H298.944V303.67C298.944 301.626 297.67 301.052 296.27 301.052C294.856 301.052 293.526 301.668 293.372 303.334H294.534C294.646 302.438 295.206 302.018 296.214 302.018C297.334 302.018 297.782 302.508 297.782 303.67V304.202H296.732C294.856 304.202 293.064 304.776 293.064 306.47C293.064 307.968 294.142 308.626 295.5 308.626ZM295.612 307.702C294.59 307.702 294.226 307.226 294.226 306.47C294.226 305.392 295.304 305.028 296.774 305.028H297.782V305.938C297.782 307.072 296.844 307.702 295.612 307.702ZM301.227 308.5H302.389V304.482C302.389 302.676 303.327 302.214 304.797 302.144V301.052C303.481 301.094 302.851 301.668 302.389 302.494V301.178H301.227V308.5ZM311.722 308.5H312.94V298.49H311.806L309.482 300.17V301.304L311.722 299.694V308.5Z" fill="#141414"/>
<rect x="346" y="35.5" width="40" height="251" fill="#F1F4FF"/>
<path d="M349.76 308.5H350.88V300.072L354.31 308.5H354.688L358.006 300.072V308.5H359.224V298.49H357.544L354.548 306.288L351.454 298.49H349.76V308.5ZM363.5 308.626C364.578 308.626 365.236 308.262 365.782 307.576V308.5H366.944V303.67C366.944 301.626 365.67 301.052 364.27 301.052C362.856 301.052 361.526 301.668 361.372 303.334H362.534C362.646 302.438 363.206 302.018 364.214 302.018C365.334 302.018 365.782 302.508 365.782 303.67V304.202H364.732C362.856 304.202 361.064 304.776 361.064 306.47C361.064 307.968 362.142 308.626 363.5 308.626ZM363.612 307.702C362.59 307.702 362.226 307.226 362.226 306.47C362.226 305.392 363.304 305.028 364.774 305.028H365.782V305.938C365.782 307.072 364.844 307.702 363.612 307.702ZM369.227 308.5H370.389V304.482C370.389 302.676 371.327 302.214 372.797 302.144V301.052C371.481 301.094 370.851 301.668 370.389 302.494V301.178H369.227V308.5ZM379.722 308.5H380.94V298.49H379.806L377.482 300.17V301.304L379.722 299.694V308.5Z" fill="#141414"/>
<rect x="414" y="35.5" width="40" height="251" fill="#F1F4FF"/>
<path d="M417.76 308.5H418.88V300.072L422.31 308.5H422.688L426.006 300.072V308.5H427.224V298.49H425.544L422.548 306.288L419.454 298.49H417.76V308.5ZM431.5 308.626C432.578 308.626 433.236 308.262 433.782 307.576V308.5H434.944V303.67C434.944 301.626 433.67 301.052 432.27 301.052C430.856 301.052 429.526 301.668 429.372 303.334H430.534C430.646 302.438 431.206 302.018 432.214 302.018C433.334 302.018 433.782 302.508 433.782 303.67V304.202H432.732C430.856 304.202 429.064 304.776 429.064 306.47C429.064 307.968 430.142 308.626 431.5 308.626ZM431.612 307.702C430.59 307.702 430.226 307.226 430.226 306.47C430.226 305.392 431.304 305.028 432.774 305.028H433.782V305.938C433.782 307.072 432.844 307.702 431.612 307.702ZM437.227 308.5H438.389V304.482C438.389 302.676 439.327 302.214 440.797 302.144V301.052C439.481 301.094 438.851 301.668 438.389 302.494V301.178H437.227V308.5ZM447.722 308.5H448.94V298.49H447.806L445.482 300.17V301.304L447.722 299.694V308.5Z" fill="#141414"/>
<rect x="482" y="35.5" width="40" height="251" fill="#F1F4FF"/>
<path d="M485.76 308.5H486.88V300.072L490.31 308.5H490.688L494.006 300.072V308.5H495.224V298.49H493.544L490.548 306.288L487.454 298.49H485.76V308.5ZM499.5 308.626C500.578 308.626 501.236 308.262 501.782 307.576V308.5H502.944V303.67C502.944 301.626 501.67 301.052 500.27 301.052C498.856 301.052 497.526 301.668 497.372 303.334H498.534C498.646 302.438 499.206 302.018 500.214 302.018C501.334 302.018 501.782 302.508 501.782 303.67V304.202H500.732C498.856 304.202 497.064 304.776 497.064 306.47C497.064 307.968 498.142 308.626 499.5 308.626ZM499.612 307.702C498.59 307.702 498.226 307.226 498.226 306.47C498.226 305.392 499.304 305.028 500.774 305.028H501.782V305.938C501.782 307.072 500.844 307.702 499.612 307.702ZM505.227 308.5H506.389V304.482C506.389 302.676 507.327 302.214 508.797 302.144V301.052C507.481 301.094 506.851 301.668 506.389 302.494V301.178H505.227V308.5ZM515.722 308.5H516.94V298.49H515.806L513.482 300.17V301.304L515.722 299.694V308.5Z" fill="#141414"/>
</g>
<defs>
<filter id="filter0_dd_1475:2068" x="0" y="0.5" width="557" height="350" filterUnits="userSpaceOnUse" color-interpolation-filters="sRGB">
<feFlood flood-opacity="0" result="BackgroundImageFix"/>
<feColorMatrix in="SourceAlpha" type="matrix" values="0 0 0 0 0 0 0 0 0 0 0 0 0 0 0 0 0 0 127 0" result="hardAlpha"/>
<feMorphology radius="1" operator="erode" in="SourceAlpha" result="effect1_dropShadow_1475:2068"/>
<feOffset dy="2"/>
<feGaussianBlur stdDeviation="2"/>
<feColorMatrix type="matrix" values="0 0 0 0 0 0 0 0 0 0 0 0 0 0 0 0 0 0 0.07 0"/>
<feBlend mode="normal" in2="BackgroundImageFix" result="effect1_dropShadow_1475:2068"/>
<feColorMatrix in="SourceAlpha" type="matrix" values="0 0 0 0 0 0 0 0 0 0 0 0 0 0 0 0 0 0 127 0" result="hardAlpha"/>
<feMorphology radius="1" operator="erode" in="SourceAlpha" result="effect2_dropShadow_1475:2068"/>
<feOffset dy="4"/>
<feGaussianBlur stdDeviation="3"/>
<feColorMatrix type="matrix" values="0 0 0 0 0 0 0 0 0 0 0 0 0 0 0 0 0 0 0.12 0"/>
<feBlend mode="normal" in2="effect1_dropShadow_1475:2068" result="effect2_dropShadow_1475:2068"/>
<feBlend mode="normal" in="SourceGraphic" in2="effect2_dropShadow_1475:2068" result="shape"/>
</filter>
</defs>
</svg>
