<svg width="100" height="100" viewBox="0 0 100 100" fill="none" xmlns="http://www.w3.org/2000/svg">
<path d="M60.875 77C60.875 76.7239 61.0989 76.5 61.375 76.5H69.875C70.1511 76.5 70.375 76.7239 70.375 77V85.5C70.375 85.7761 70.1511 86 69.875 86H61.375C61.0989 86 60.875 85.7761 60.875 85.5V77Z" fill="#F5B03A" stroke="#D16E1D" stroke-width="3"/>
<path d="M82.75 77C82.75 76.7239 82.9739 76.5 83.25 76.5H91.75C92.0261 76.5 92.25 76.7239 92.25 77V85.5C92.25 85.7761 92.0261 86 91.75 86H83.25C82.9739 86 82.75 85.7761 82.75 85.5V77Z" fill="#F5B03A" stroke="#D16E1D" stroke-width="3"/>
<path d="M60.875 55.125C60.875 54.8489 61.0989 54.625 61.375 54.625H69.875C70.1511 54.625 70.375 54.8489 70.375 55.125V63.625C70.375 63.9011 70.1511 64.125 69.875 64.125H61.375C61.0989 64.125 60.875 63.9011 60.875 63.625V55.125Z" fill="#F5B03A" stroke="#D16E1D" stroke-width="3"/>
<path d="M82.75 55.125C82.75 54.8489 82.9739 54.625 83.25 54.625H91.75C92.0261 54.625 92.25 54.8489 92.25 55.125V63.625C92.25 63.9011 92.0261 64.125 91.75 64.125H83.25C82.9739 64.125 82.75 63.9011 82.75 63.625V55.125Z" fill="#F5B03A" stroke="#D16E1D" stroke-width="3"/>
<path d="M53.125 75H12.5V31.25H87.5V46.875H93.75V31.25C93.7483 29.5929 93.0893 28.0042 91.9176 26.8324C90.7458 25.6607 89.1571 25.0017 87.5 25H68.75V12.5C68.7483 10.8429 68.0893 9.25415 66.9176 8.08241C65.7458 6.91067 64.1571 6.25165 62.5 6.25H37.5C35.8429 6.25165 34.2542 6.91067 33.0824 8.08241C31.9107 9.25415 31.2517 10.8429 31.25 12.5V25H12.5C10.8429 25.0017 9.25415 25.6607 8.08241 26.8324C6.91067 28.0042 6.25165 29.5929 6.25 31.25V75C6.25165 76.6571 6.91067 78.2458 8.08241 79.4176C9.25415 80.5893 10.8429 81.2483 12.5 81.25H53.125V75ZM37.5 12.5H62.5V25H37.5V12.5Z" fill="#153853"/>
</svg>
