<svg width="50" height="50" viewBox="0 0 50 50" fill="none" xmlns="http://www.w3.org/2000/svg">
<rect width="50" height="50" rx="18" fill="#9571F7"/>
<path d="M24 27H22C22 22.03 26.03 18 31 18V20C27.13 20 24 23.13 24 27ZM31 24V22C28.24 22 26 24.24 26 27H28C28 25.34 29.34 24 31 24ZM20 17C20 15.89 19.11 15 18 15C16.89 15 16 15.89 16 17C16 18.11 16.89 19 18 19C19.11 19 20 18.11 20 17ZM24.45 17.5H22.45C22.21 18.92 21 20 19.5 20H16.5C15.67 20 15 20.67 15 21.5V24H21V21.74C22.86 21.15 24.25 19.5 24.45 17.5ZM32 30C33.11 30 34 29.11 34 28C34 26.89 33.11 26 32 26C30.89 26 30 26.89 30 28C30 29.11 30.89 30 32 30ZM33.5 31H30.5C29 31 27.79 29.92 27.55 28.5H25.55C25.75 30.5 27.14 32.15 29 32.74V35H35V32.5C35 31.67 34.33 31 33.5 31Z" fill="white"/>
</svg>
