<svg width="50" height="50" viewBox="0 0 50 50" fill="none" xmlns="http://www.w3.org/2000/svg">
<rect width="50" height="50" rx="18" fill="#FEBE49"/>
<path d="M16 26.5L15.25 25H20.5L19.9 23.5H15L14.25 22H22.05L21.45 20.5H14.11L13.25 19H17C17 18.4696 17.2107 17.9609 17.5858 17.5858C17.9609 17.2107 18.4696 17 19 17H31V21H34L37 25V30H35C35 30.7956 34.6839 31.5587 34.1213 32.1213C33.5587 32.6839 32.7956 33 32 33C31.2044 33 30.4413 32.6839 29.8787 32.1213C29.3161 31.5587 29 30.7956 29 30H25C25 30.7956 24.6839 31.5587 24.1213 32.1213C23.5587 32.6839 22.7956 33 22 33C21.2044 33 20.4413 32.6839 19.8787 32.1213C19.3161 31.5587 19 30.7956 19 30H17V26.5H16ZM32 31.5C32.3978 31.5 32.7794 31.342 33.0607 31.0607C33.342 30.7794 33.5 30.3978 33.5 30C33.5 29.6022 33.342 29.2206 33.0607 28.9393C32.7794 28.658 32.3978 28.5 32 28.5C31.6022 28.5 31.2206 28.658 30.9393 28.9393C30.658 29.2206 30.5 29.6022 30.5 30C30.5 30.3978 30.658 30.7794 30.9393 31.0607C31.2206 31.342 31.6022 31.5 32 31.5ZM33.5 22.5H31V25H35.46L33.5 22.5ZM22 31.5C22.3978 31.5 22.7794 31.342 23.0607 31.0607C23.342 30.7794 23.5 30.3978 23.5 30C23.5 29.6022 23.342 29.2206 23.0607 28.9393C22.7794 28.658 22.3978 28.5 22 28.5C21.6022 28.5 21.2206 28.658 20.9393 28.9393C20.658 29.2206 20.5 29.6022 20.5 30C20.5 30.3978 20.658 30.7794 20.9393 31.0607C21.2206 31.342 21.6022 31.5 22 31.5Z" fill="white"/>
</svg>
