<svg width="587" height="450" viewBox="0 0 587 450" fill="none" xmlns="http://www.w3.org/2000/svg">
<path d="M130.055 12.0081L140.798 7.77335L131.759 0.587458L130.055 12.0081ZM462.72 55.8023L462.424 54.847L462.72 55.8023ZM379.99 271.122L380.139 270.133L379.99 271.122ZM153.065 448.35L145.957 439.25L141.63 449.955L153.065 448.35ZM139.344 5.52461C141.518 4.61 143.969 3.99626 146.691 3.66025L146.446 1.67532C143.577 2.02944 140.942 2.68245 138.569 3.68112L139.344 5.52461ZM154.342 3.39625C156.764 3.49239 159.33 3.73721 162.033 4.11693L162.312 2.13637C159.554 1.74903 156.921 1.49703 154.421 1.39783L154.342 3.39625ZM169.698 5.46694C172.148 5.97578 174.686 6.56849 177.309 7.23642L177.803 5.29827C175.156 4.6241 172.588 4.02445 170.105 3.50872L169.698 5.46694ZM184.875 9.29731C187.325 10.004 189.838 10.7628 192.409 11.5674L193.007 9.65861C190.423 8.85018 187.896 8.08707 185.429 7.37562L184.875 9.29731ZM199.824 13.956C202.249 14.7573 204.72 15.5914 207.234 16.4537L207.883 14.5619C205.363 13.6976 202.885 12.8611 200.451 12.057L199.824 13.956ZM214.657 19.0332C217.1 19.892 219.58 20.7717 222.095 21.6685L222.766 19.7848C220.25 18.8872 217.767 18.0064 215.32 17.1463L214.657 19.0332ZM229.441 24.2991C231.876 25.1736 234.339 26.0594 236.831 26.9546L237.507 25.0724C235.017 24.1779 232.551 23.291 230.117 22.4168L229.441 24.2991ZM244.262 29.6176C246.693 30.4862 249.148 31.3599 251.626 32.2359L252.293 30.3503C249.818 29.4752 247.364 28.6022 244.934 27.7341L244.262 29.6176ZM259.046 34.8398C261.507 35.6965 263.988 36.5527 266.488 37.4058L267.134 35.513C264.638 34.6614 262.161 33.8065 259.703 32.951L259.046 34.8398ZM273.917 39.911C276.395 40.736 278.889 41.5556 281.4 42.3673L282.015 40.4643C279.511 39.6545 277.021 38.8368 274.549 38.0134L273.917 39.911ZM288.883 44.7469C291.375 45.5255 293.881 46.2942 296.4 47.0507L296.976 45.1352C294.464 44.381 291.965 43.6145 289.48 42.8379L288.883 44.7469ZM303.954 49.2694C306.465 49.9898 308.987 50.696 311.519 51.3858L312.045 49.4561C309.521 48.7688 307.008 48.065 304.506 47.347L303.954 49.2694ZM319.13 53.3997C321.665 54.0501 324.209 54.6822 326.761 55.2938L327.227 53.3488C324.686 52.7399 322.152 52.1103 319.627 51.4624L319.13 53.3997ZM334.43 57.0621C336.99 57.6288 339.556 58.1729 342.129 58.6922L342.525 56.7318C339.965 56.2149 337.41 55.6735 334.862 55.1094L334.43 57.0621ZM349.86 60.173C352.442 60.6404 355.029 61.081 357.62 61.4926L357.934 59.5173C355.357 59.1081 352.784 58.6699 350.216 58.205L349.86 60.173ZM365.411 62.6391C368.014 62.9911 370.619 63.3118 373.227 63.5991L373.446 61.6112C370.855 61.3257 368.266 61.007 365.679 60.6572L365.411 62.6391ZM381.066 64.3595C383.686 64.5785 386.307 64.7616 388.927 64.9066L389.038 62.9096C386.437 62.7657 383.835 62.5839 381.233 62.3665L381.066 64.3595ZM396.796 65.2256C399.426 65.2925 402.055 65.3189 404.682 65.3024L404.669 63.3025C402.064 63.3188 399.456 63.2926 396.847 63.2262L396.796 65.2256ZM412.56 65.1223C415.188 65.0178 417.813 64.868 420.433 64.6707L420.283 62.6763C417.687 62.8718 415.086 63.0203 412.481 63.1239L412.56 65.1223ZM428.284 63.9336C430.896 63.6388 433.504 63.2942 436.105 62.8975L435.803 60.9204C433.228 61.313 430.647 61.6543 428.059 61.9462L428.284 63.9336ZM443.875 61.5513C446.454 61.0498 449.026 60.4943 451.59 59.8826L451.126 57.9372C448.59 58.5423 446.045 59.0919 443.493 59.5881L443.875 61.5513ZM459.221 57.8856C460.488 57.5242 461.753 57.1482 463.015 56.7575L462.424 54.847C461.176 55.2332 459.925 55.6049 458.672 55.9623L459.221 57.8856ZM463.015 56.7575C464.291 56.3627 465.563 56.0012 466.831 55.6725L466.33 53.7365C465.031 54.073 463.729 54.443 462.424 54.847L463.015 56.7575ZM474.392 54.0873C477.002 53.6688 479.593 53.3866 482.161 53.2346L482.042 51.2381C479.408 51.394 476.751 51.6835 474.075 52.1125L474.392 54.0873ZM489.913 53.168C492.514 53.2777 495.089 53.5197 497.632 53.8874L497.919 51.9079C495.309 51.5307 492.667 51.2824 489.997 51.1698L489.913 53.168ZM505.271 55.3863C507.787 56.0116 510.268 56.7598 512.711 57.6238L513.378 55.7383C510.876 54.8533 508.333 54.0865 505.753 53.4453L505.271 55.3863ZM519.922 60.5587C522.27 61.6422 524.577 62.8337 526.838 64.1264L527.831 62.3902C525.521 61.0694 523.162 59.8511 520.76 58.7426L519.922 60.5587ZM533.431 68.2686C535.568 69.735 537.655 71.2932 539.691 72.9367L540.948 71.3805C538.872 69.7053 536.743 68.1161 534.563 66.6197L533.431 68.2686ZM545.575 78.0555C547.465 79.8239 549.301 81.6679 551.081 83.5812L552.546 82.2189C550.735 80.2725 548.866 78.3957 546.941 76.5951L545.575 78.0555ZM556.215 89.4826C557.852 91.4941 559.43 93.5666 560.947 95.6942L562.576 94.533C561.034 92.3714 559.43 90.2651 557.766 88.2203L556.215 89.4826ZM565.284 102.193C566.662 104.401 567.975 106.657 569.223 108.955L570.981 108.001C569.714 105.667 568.38 103.377 566.981 101.135L565.284 102.193ZM572.744 115.93C573.847 118.289 574.883 120.683 575.846 123.108L577.705 122.369C576.727 119.907 575.676 117.477 574.555 115.082L572.744 115.93ZM578.516 130.457C579.332 132.932 580.074 135.432 580.739 137.951L582.672 137.441C581.997 134.883 581.244 132.344 580.415 129.83L578.516 130.457ZM582.499 145.567C583.007 148.124 583.434 150.693 583.777 153.271L585.76 153.007C585.411 150.387 584.977 147.775 584.461 145.177L582.499 145.567ZM584.555 161.048C584.729 163.648 584.814 166.251 584.809 168.85L586.809 168.853C586.814 166.208 586.727 163.56 586.551 160.915L584.555 161.048ZM584.518 176.647C584.328 179.243 584.043 181.83 583.66 184.401L585.638 184.696C586.028 182.074 586.319 179.438 586.513 176.793L584.518 176.647ZM582.217 192.061C581.637 194.592 580.957 197.102 580.173 199.585L582.081 200.187C582.881 197.652 583.575 195.09 584.167 192.508L582.217 192.061ZM577.528 206.902C576.548 209.296 575.464 211.659 574.274 213.984L576.054 214.896C577.271 212.519 578.378 210.105 579.379 207.659L577.528 206.902ZM570.433 220.755C569.073 222.931 567.61 225.067 566.041 227.158L567.64 228.358C569.244 226.222 570.739 224.039 572.129 221.816L570.433 220.755ZM561.074 233.223C559.382 235.121 557.592 236.975 555.701 238.779L557.081 240.226C559.011 238.385 560.839 236.493 562.567 234.554L561.074 233.223ZM549.842 243.943C547.862 245.557 545.79 247.122 543.623 248.636L544.769 250.276C546.975 248.734 549.087 247.138 551.105 245.494L549.842 243.943ZM537.096 252.865C534.897 254.186 532.612 255.458 530.242 256.68L531.158 258.458C533.566 257.217 535.888 255.923 538.126 254.58L537.096 252.865ZM523.242 260.023C520.893 261.061 518.468 262.054 515.966 262.997L516.672 264.868C519.208 263.912 521.667 262.906 524.051 261.852L523.242 260.023ZM508.618 265.553C506.183 266.333 503.682 267.069 501.113 267.76L501.633 269.691C504.231 268.992 506.762 268.247 509.228 267.458L508.618 265.553ZM493.46 269.639C490.991 270.189 488.466 270.7 485.882 271.17L486.24 273.137C488.849 272.663 491.4 272.147 493.895 271.591L493.46 269.639ZM477.959 272.456C475.478 272.811 472.948 273.131 470.367 273.414L470.585 275.402C473.187 275.117 475.739 274.794 478.242 274.435L477.959 272.456ZM462.539 274.146C459.935 274.349 457.283 274.515 454.584 274.645L454.68 276.643C457.399 276.512 460.07 276.344 462.694 276.14L462.539 274.146ZM446.924 274.911C444.329 274.967 441.691 274.991 439.011 274.98L439.003 276.98C441.7 276.991 444.355 276.967 446.967 276.911L446.924 274.911ZM431.053 274.854C428.536 274.784 425.983 274.686 423.393 274.559L423.295 276.556C425.898 276.685 428.466 276.783 430.998 276.853L431.053 274.854ZM415.517 274.088C412.866 273.903 410.18 273.688 407.457 273.442L407.278 275.434C410.014 275.681 412.713 275.897 415.377 276.084L415.517 274.088ZM399.884 272.692C397.329 272.416 394.743 272.115 392.126 271.787L391.877 273.771C394.505 274.101 397.103 274.403 399.669 274.68L399.884 272.692ZM384.181 270.724C382.842 270.534 381.494 270.337 380.139 270.133L379.841 272.11C381.202 272.315 382.555 272.513 383.9 272.704L384.181 270.724ZM380.139 270.133C378.817 269.934 377.496 269.738 376.177 269.544L375.887 271.523C377.203 271.716 378.522 271.912 379.841 272.11L380.139 270.133ZM368.278 268.414C365.651 268.047 363.029 267.691 360.414 267.345L360.151 269.328C362.762 269.673 365.379 270.029 368.002 270.394L368.278 268.414ZM352.585 266.338C349.935 266.007 347.291 265.686 344.654 265.376L344.42 267.362C347.052 267.672 349.691 267.992 352.337 268.323L352.585 266.338ZM336.739 264.473C334.107 264.183 331.484 263.903 328.867 263.634L328.662 265.623C331.274 265.892 333.893 266.171 336.519 266.461L336.739 264.473ZM320.988 262.852C318.325 262.597 315.669 262.353 313.022 262.12L312.847 264.113C315.489 264.345 318.139 264.589 320.798 264.843L320.988 262.852ZM305.107 261.454C302.478 261.242 299.857 261.041 297.246 260.851L297.1 262.846C299.707 263.036 302.322 263.236 304.947 263.447L305.107 261.454ZM289.273 260.301C286.61 260.128 283.957 259.966 281.315 259.814L281.201 261.811C283.838 261.962 286.485 262.124 289.143 262.297L289.273 260.301ZM273.421 259.394C270.768 259.263 268.127 259.144 265.498 259.035L265.415 261.033C268.039 261.142 270.675 261.261 273.322 261.391L273.421 259.394ZM257.5 258.738C254.846 258.65 252.205 258.574 249.576 258.51L249.527 260.509C252.15 260.574 254.786 260.65 257.434 260.737L257.5 258.738ZM241.704 258.349C239.011 258.305 236.333 258.274 233.67 258.254L233.655 260.254C236.313 260.273 238.985 260.305 241.671 260.348L241.704 258.349ZM225.724 258.231C223.091 258.235 220.472 258.251 217.869 258.279L217.89 260.279C220.487 260.251 223.1 260.235 225.727 260.231L225.724 258.231ZM209.834 258.402C207.164 258.456 204.512 258.523 201.877 258.601L201.937 260.601C204.565 260.522 207.211 260.456 209.875 260.402L209.834 258.402ZM194.027 258.875C191.333 258.982 188.659 259.103 186.005 259.237L186.105 261.234C188.752 261.101 191.42 260.981 194.107 260.873L194.027 258.875ZM178.054 259.68C175.425 259.841 172.817 260.015 170.23 260.202L170.375 262.197C172.954 262.01 175.554 261.837 178.176 261.676L178.054 259.68ZM162.201 260.83C159.537 261.055 156.898 261.294 154.285 261.546L154.477 263.537C157.082 263.285 159.713 263.047 162.369 262.823L162.201 260.83ZM146.474 262.351C143.773 262.646 141.101 262.957 138.458 263.284L138.704 265.269C141.337 264.944 144 264.633 146.692 264.339L146.474 262.351ZM130.62 264.308C127.967 264.674 125.345 265.056 122.757 265.454L123.061 267.431C125.639 267.035 128.25 266.654 130.893 266.289L130.62 264.308ZM114.847 266.736C112.246 267.18 109.68 267.64 107.152 268.117L107.522 270.082C110.039 269.608 112.593 269.149 115.183 268.707L114.847 266.736ZM99.2103 269.692C96.596 270.238 94.0247 270.801 91.4974 271.383L91.9461 273.332C94.4596 272.753 97.0175 272.193 99.6188 271.65L99.2103 269.692ZM83.7235 273.265C81.1067 273.931 78.5422 274.617 76.0314 275.324L76.5734 277.249C79.0674 276.547 81.6156 275.865 84.2167 275.203L83.7235 273.265ZM68.4156 277.582C65.8165 278.393 63.282 279.228 60.8141 280.086L61.4708 281.975C63.9177 281.124 66.4318 280.296 69.0115 279.491L68.4156 277.582ZM53.3569 282.828C50.8121 283.818 48.3488 284.835 45.9696 285.879L46.7732 287.71C49.1251 286.678 51.5621 285.672 54.082 284.692L53.3569 282.828ZM38.7152 289.276C36.2904 290.49 33.9704 291.735 31.7586 293.013L32.7588 294.744C34.9338 293.488 37.2185 292.262 39.6101 291.065L38.7152 289.276ZM24.876 297.329C22.5953 298.887 20.4636 300.488 18.4864 302.13L19.7642 303.668C21.6894 302.069 23.7708 300.506 26.0043 298.98L24.876 297.329ZM12.6708 307.55C10.728 309.6 9.00951 311.71 7.5259 313.876L9.17604 315.006C10.5949 312.934 12.2456 310.907 14.1226 308.926L12.6708 307.55ZM3.59669 320.994C2.52215 323.525 1.75059 326.122 1.29549 328.781L3.26682 329.118C3.69481 326.618 4.42126 324.17 5.43766 321.776L3.59669 320.994ZM0.888929 336.877C1.0644 339.491 1.5315 342.15 2.29679 344.849L4.22096 344.303C3.49156 341.731 3.05004 339.21 2.88444 336.743L0.888929 336.877ZM5.19452 352.45C6.30246 354.772 7.62364 357.121 9.16193 359.496L10.8405 358.409C9.34521 356.1 8.06724 353.827 6.9996 351.589L5.19452 352.45ZM13.7827 365.891C15.4029 367.925 17.1797 369.977 19.1157 372.047L20.5764 370.681C18.6737 368.646 16.9319 366.634 15.347 364.644L13.7827 365.891ZM24.6687 377.618C26.555 379.402 28.5583 381.199 30.6803 383.008L31.9778 381.486C29.8803 379.698 27.9027 377.924 26.0429 376.165L24.6687 377.618ZM36.7755 387.981C38.8513 389.605 41.0222 391.239 43.2894 392.883L44.4632 391.263C42.2149 389.634 40.0636 388.014 38.008 386.405L36.7755 387.981ZM49.6333 397.334C51.8263 398.825 54.0981 400.324 56.4496 401.83L57.5282 400.146C55.1915 398.649 52.9351 397.161 50.7579 395.68L49.6333 397.334ZM63.0785 405.965C65.2826 407.305 67.5495 408.651 69.8799 410.002L70.8831 408.272C68.5643 406.927 66.3094 405.589 64.1176 404.256L63.0785 405.965ZM77.0626 414.071C79.257 415.287 81.5027 416.507 83.8001 417.731L84.7404 415.965C82.4524 414.746 80.2163 413.532 78.0317 412.322L77.0626 414.071ZM90.8237 421.402C93.2166 422.63 95.6613 423.861 98.1583 425.097L99.0453 423.304C96.5567 422.073 94.1207 420.846 91.7367 419.622L90.8237 421.402ZM105.124 428.488C107.448 429.602 109.816 430.719 112.226 431.839L113.068 430.025C110.665 428.909 108.305 427.795 105.988 426.684L105.124 428.488ZM119.584 435.207C121.992 436.294 124.44 437.382 126.929 438.474L127.732 436.642C125.25 435.554 122.808 434.468 120.406 433.384L119.584 435.207ZM134.021 441.544C136.421 442.57 138.856 443.598 141.328 444.628L142.097 442.782C139.631 441.754 137.201 440.729 134.807 439.705L134.021 441.544Z" fill="#153853"/>
</svg>
