<svg width="211" height="210" viewBox="0 0 211 210" fill="none" xmlns="http://www.w3.org/2000/svg">
<path d="M105.502 0C71.1649 0 43.0249 28.056 43.0249 62.2986C43.0249 75.5664 47.2627 87.8976 54.4342 98.0322L97.8769 173.134C103.961 181.083 108.005 179.573 113.064 172.714L160.982 91.1715C161.948 89.4201 162.708 87.5553 163.37 85.6506C166.41 78.2407 167.974 70.3081 167.973 62.2986C167.975 28.056 139.843 0 105.502 0ZM105.502 29.19C123.995 29.19 138.699 43.8606 138.699 62.2986C138.699 80.7366 123.995 95.4009 105.502 95.4009C87.0115 95.4009 72.301 80.7387 72.301 62.2986C72.301 43.8606 87.0115 29.1921 105.502 29.1921V29.19Z" fill="#46F7AD"/>
<path d="M145.217 102.707L145.117 102.972C145.148 102.892 145.173 102.81 145.205 102.73L145.217 102.707Z" fill="#46F7AD"/>
<path d="M71.9126 145.02C42.248 149.211 21.5 159.239 21.5 174C21.5 193.882 56.1668 210 105.5 210C154.833 210 189.5 193.882 189.5 174C189.5 159.239 168.754 149.211 139.092 145.02L134.982 152.017C157.339 155.118 172.7 161.637 172.7 169.201C172.7 179.806 142.613 188.401 105.5 188.401C68.3867 188.401 38.3 179.806 38.3 169.201C38.2979 161.662 53.5586 155.15 75.9845 152.036C74.63 149.696 73.2671 147.361 71.9105 145.02H71.9126Z" fill="#153853"/>
</svg>
