<svg width="50" height="50" viewBox="0 0 50 50" fill="none" xmlns="http://www.w3.org/2000/svg">
<rect width="50" height="50" rx="10" fill="#EF5DA8"/>
<path fill-rule="evenodd" clip-rule="evenodd" d="M14.375 22.8963C14.375 17.1464 19.1799 12.4991 24.9918 12.4991C30.8201 12.4991 35.625 17.1464 35.625 22.8963C35.625 25.7937 34.5713 28.4836 32.8369 30.7636C30.9235 33.2785 28.5652 35.4697 25.9107 37.1896C25.3031 37.5871 24.7548 37.6171 24.0881 37.1896C21.4184 35.4697 19.0601 33.2785 17.1631 30.7636C15.4275 28.4836 14.375 25.7937 14.375 22.8963ZM21.4927 23.2205C21.4927 25.1467 23.0645 26.6617 24.9917 26.6617C26.9202 26.6617 28.5071 25.1467 28.5071 23.2205C28.5071 21.3093 26.9202 19.7206 24.9917 19.7206C23.0645 19.7206 21.4927 21.3093 21.4927 23.2205Z" fill="white"/>
</svg>
