<svg width="235" height="65" viewBox="0 0 235 65" fill="none" xmlns="http://www.w3.org/2000/svg">
<path d="M32.4914 64.9984C31.5293 65.0163 30.7246 64.6717 30.0453 63.9945C20.3746 54.3237 10.6998 44.657 1.0311 34.9862C-0.333366 33.6218 -0.349301 31.586 1.01715 30.2076C4.02295 27.1759 7.09249 24.206 10.0624 21.1404C16.6059 14.3859 23.3525 7.82848 29.9716 1.1476C31.4835 -0.378205 33.4834 -0.382189 35.0012 1.13366C41.3694 7.49583 47.7773 13.8202 54.0837 20.2421C57.3186 23.5347 60.5993 26.7776 63.8381 30.0662C65.3361 31.588 65.352 33.5899 63.8342 35.1058C57.225 41.7169 50.6098 48.3261 43.9987 54.9353C41.0208 57.9132 38.0429 60.8891 35.063 63.865C34.3538 64.5781 33.5272 65.0303 32.4914 64.9984ZM37.7122 40.2887C40.6881 40.2887 43.662 40.2808 46.638 40.2967C47.0961 40.2987 47.4367 40.1652 47.7634 39.8366C50.0202 37.5578 52.285 35.289 54.5698 33.0382C54.9522 32.6617 54.9522 32.4366 54.5678 32.0641C52.2651 29.8352 50.0661 27.4966 47.7256 25.3055C47.4208 25.0207 47.118 24.8852 46.6997 24.8852C40.71 24.8952 34.7203 24.8972 28.7326 24.8813C28.153 24.8793 27.9638 25.0466 27.9678 25.6362C27.9877 30.2714 27.9877 34.9066 27.9678 39.5417C27.9658 40.1294 28.149 40.3047 28.7307 40.3007C31.7225 40.2748 34.7183 40.2887 37.7122 40.2887ZM19.9204 22.6284C19.7093 22.8176 19.5758 22.9252 19.4563 23.0447C16.4505 26.0465 13.4527 29.0583 10.4329 32.0462C10.0306 32.4426 10.0465 32.6736 10.4389 33.0621C13.4447 36.038 16.4286 39.0338 19.4224 42.0217C19.5519 42.1512 19.6495 42.3404 19.9204 42.3543C19.9204 35.8149 19.9204 29.2834 19.9204 22.6284ZM25.8045 16.7244C25.9141 16.7423 25.9898 16.7662 26.0635 16.7662C30.2724 16.7682 34.4793 16.7702 38.6882 16.7662C38.8157 16.7662 38.997 16.824 39.0508 16.6706C39.1125 16.4953 38.9253 16.4077 38.8217 16.3061C36.8318 14.3122 34.8299 12.3282 32.8539 10.3204C32.5053 9.96581 32.3161 10.0614 32.0213 10.3602C30.0652 12.3342 28.0952 14.2942 26.1312 16.2603C26.0097 16.3798 25.8523 16.4734 25.8045 16.7244ZM32.5213 48.2962C30.4935 48.2962 28.4637 48.2942 26.436 48.2982C26.2687 48.2982 26.0396 48.2185 25.9519 48.3839C25.8484 48.5771 26.0854 48.6767 26.1989 48.7882C28.149 50.7443 30.1091 52.6904 32.0492 54.6564C32.3878 55.001 32.6069 54.993 32.9416 54.6524C34.8697 52.7003 36.8158 50.7702 38.752 48.8261C38.8775 48.7006 39.1344 48.593 39.0328 48.3799C38.9571 48.2185 38.7161 48.2982 38.5488 48.2982C36.539 48.2942 34.5291 48.2962 32.5213 48.2962Z" fill="#46F7AD"/>
<path d="M111.182 24.3905C112.108 23.2731 112.998 22.4046 114.11 21.7791C117.809 19.7016 124.402 20.6975 125.547 27.1215C125.707 28.0138 125.778 28.9182 125.778 29.8245C125.778 34.4417 125.778 39.057 125.778 43.6743C125.778 44.5009 125.774 44.5029 124.94 44.5029C123.259 44.5049 121.578 44.5049 119.896 44.5029C119.112 44.5029 119.11 44.4989 119.11 43.6922C119.11 39.79 119.116 35.8879 119.104 31.9877C119.102 31.1212 119.034 30.2527 118.773 29.4161C118.157 27.4441 116.598 26.735 114.831 26.9382C112.512 27.2071 111.53 28.3664 111.271 30.6969C111.198 31.3543 111.186 32.0036 111.184 32.659C111.18 36.3679 111.172 40.0769 111.192 43.7838C111.196 44.3336 111.038 44.5248 110.473 44.5149C108.773 44.483 107.072 44.5049 105.371 44.5029C104.505 44.5029 104.503 44.5009 104.503 43.6524C104.503 34.5732 104.503 25.4961 104.503 16.4169C104.503 15.5086 104.501 14.6003 104.503 13.694C104.505 12.941 104.519 12.9251 105.292 12.9251C106.993 12.9231 108.692 12.9231 110.393 12.9251C111.168 12.9271 111.18 12.937 111.18 13.694C111.182 16.9966 111.18 20.2991 111.18 23.6037C111.182 23.8089 111.182 24.0161 111.182 24.3905Z" fill="#153853"/>
<path d="M189.675 28.7638C189.918 28.5368 190.06 28.4113 190.193 28.2778C192.38 26.0947 194.573 23.9135 196.748 21.7184C197.071 21.3938 197.398 21.2404 197.864 21.2444C200.067 21.2643 202.27 21.2523 204.473 21.2563C204.636 21.2563 204.865 21.1727 204.945 21.3619C205.025 21.5531 204.802 21.6547 204.688 21.7702C202.045 24.4255 199.408 27.0866 196.744 29.72C196.304 30.1542 196.344 30.4829 196.653 30.9549C199.461 35.2515 202.254 39.562 205.047 43.8685C205.156 44.0378 205.393 44.2111 205.266 44.4203C205.166 44.5856 204.907 44.502 204.718 44.502C202.613 44.5059 200.505 44.492 198.4 44.5139C197.957 44.5179 197.708 44.3645 197.473 43.99C195.669 41.1336 193.834 38.2971 192.028 35.4447C191.781 35.0563 191.683 34.9806 191.243 35.3133C189.946 36.2913 189.498 37.4964 189.645 39.1059C189.789 40.6576 189.655 42.2332 189.687 43.7968C189.699 44.3645 189.496 44.5219 188.95 44.5139C187.191 44.486 185.432 44.49 183.675 44.5119C183.189 44.5179 182.992 44.3924 182.992 43.8645C183.004 33.7616 183.004 23.6586 182.994 13.5556C182.994 13.0715 183.167 12.9122 183.636 12.9162C185.412 12.9321 187.191 12.9401 188.968 12.9122C189.54 12.9022 189.685 13.1213 189.683 13.6611C189.667 18.4139 189.673 23.1646 189.673 27.9173C189.675 28.1523 189.675 28.3814 189.675 28.7638Z" fill="#153853"/>
<path d="M164.342 28.639C164.559 28.5932 164.657 28.4139 164.788 28.2824C167.019 26.0594 169.25 23.8365 171.467 21.5995C171.722 21.3426 171.983 21.245 172.333 21.247C174.574 21.2569 176.817 21.251 179.058 21.2549C179.224 21.2549 179.461 21.1753 179.536 21.3486C179.632 21.5637 179.383 21.6732 179.257 21.8007C176.638 24.4281 174.027 27.0614 171.377 29.6608C170.919 30.111 170.919 30.4397 171.244 30.9376C174.039 35.2222 176.819 39.5148 179.602 43.8074C179.644 43.8731 179.69 43.9349 179.733 43.9986C179.976 44.3572 179.885 44.5105 179.449 44.5086C178.174 44.5006 176.897 44.5066 175.622 44.5066C174.752 44.5066 173.883 44.4886 173.013 44.5145C172.582 44.5265 172.324 44.397 172.079 44.0106C170.254 41.1223 168.391 38.2579 166.561 35.3736C166.316 34.9872 166.216 35.0171 165.858 35.288C164.553 36.272 164.089 37.503 164.24 39.1364C164.384 40.6881 164.254 42.2637 164.28 43.8273C164.29 44.3671 164.093 44.5245 163.571 44.5165C161.852 44.4906 160.131 44.5086 158.412 44.5066C157.603 44.5066 157.601 44.5046 157.601 43.658C157.601 34.6366 157.601 25.6152 157.601 16.5939C157.601 15.6079 157.629 14.6219 157.591 13.6379C157.569 13.0642 157.791 12.9088 158.332 12.9168C160.071 12.9407 161.81 12.9427 163.549 12.9168C164.105 12.9088 164.282 13.0981 164.28 13.6518C164.264 18.4424 164.27 23.2329 164.274 28.0255C164.278 28.2247 164.216 28.4418 164.342 28.639Z" fill="#153853"/>
<path d="M144.779 35.3378C142.345 35.3378 139.911 35.3378 137.477 35.3378C136.825 35.3378 136.773 35.4234 137.007 36.0429C137.801 38.1523 139.273 39.3535 141.56 39.5905C143.701 39.8136 145.57 39.2419 147.189 37.8655C147.576 37.5368 147.775 37.6066 148.084 37.9253C148.982 38.8555 149.886 39.7837 150.832 40.6642C151.251 41.0526 151.225 41.3055 150.844 41.682C149.175 43.3373 147.183 44.3711 144.885 44.8014C142.731 45.2037 140.588 45.148 138.481 44.5085C133.999 43.1501 131.27 40.1443 130.391 35.5788C129.638 31.6607 130.383 28.0095 132.941 24.8543C134.857 22.4919 137.389 21.227 140.407 20.8924C142.57 20.6534 144.642 20.9701 146.61 21.8804C149.305 23.1273 150.984 25.2906 151.994 28.0215C152.657 29.8142 152.848 31.6926 152.906 33.5869C152.914 33.8737 152.87 34.1625 152.828 34.4494C152.703 35.3358 152.701 35.3358 151.789 35.3358C149.454 35.3378 147.115 35.3378 144.779 35.3378ZM141.532 31.099C142.96 31.099 144.389 31.103 145.817 31.095C146.036 31.093 146.355 31.2045 146.299 30.7524C146.016 28.4776 144.51 26.2367 141.676 26.2128C138.933 26.1889 137.333 28.0872 136.805 30.609C136.728 30.9834 136.851 31.1149 137.25 31.1089C138.678 31.087 140.106 31.101 141.532 31.099Z" fill="#153853"/>
<path d="M85.5216 33.1269C85.5256 35.0252 86.1332 36.7921 87.7486 38.0709C89.8441 39.7301 93.0471 39.6305 95.2263 37.9035C96.1684 37.1566 96.1684 37.1566 97.011 37.9992C97.9133 38.9015 98.8057 39.8098 99.72 40.6982C100.017 40.985 100.057 41.1783 99.7419 41.499C97.6644 43.6104 95.1804 44.7657 92.2045 44.9888C89.3959 45.1999 86.7686 44.7139 84.4042 43.1921C81.1932 41.1265 79.3646 38.1585 78.9862 34.34C78.5898 30.3363 79.7331 26.8584 82.6632 24.0558C84.6572 22.1495 87.0813 21.1456 89.8302 20.8946C92.3858 20.6615 94.8338 21.0041 97.1265 22.1933C98.0548 22.6754 98.8914 23.2968 99.6363 24.0418C99.8833 24.2888 99.8873 24.4422 99.6284 24.6952C98.3994 25.8963 97.1803 27.1094 95.9832 28.3424C95.6585 28.677 95.5051 28.4439 95.282 28.2547C93.4534 26.6911 91.3819 26.1413 89.0931 26.9978C87.1371 27.7288 86.1292 29.3064 85.673 31.2864C85.5416 31.8621 85.5475 32.4357 85.5216 33.1269Z" fill="#153853"/>
<path d="M229.101 32.3349C229.101 33.8408 229.097 35.3486 229.103 36.8545C229.109 38.3923 229.718 38.9759 231.25 38.9978C232.18 39.0098 233.047 38.7827 233.884 38.4182C234.266 38.2509 234.443 38.2529 234.439 38.7429C234.423 40.191 234.427 41.6411 234.437 43.0892C234.439 43.4199 234.318 43.625 234.023 43.7764C232.752 44.4258 231.428 44.8341 229.983 44.864C228.728 44.8899 227.49 44.8959 226.267 44.5214C223.99 43.8242 222.739 41.9479 222.556 39.6332C222.243 35.7032 222.492 31.7592 222.428 27.8232C222.414 27.0045 222.424 27.0045 221.599 27.0025C221.115 27.0025 220.633 26.9926 220.149 27.0025C219.813 27.0105 219.651 26.8711 219.653 26.5265C219.659 24.923 219.657 23.3195 219.655 21.716C219.655 21.3594 219.843 21.2479 220.167 21.2539C220.669 21.2618 221.171 21.2558 221.675 21.2539C222.426 21.2519 222.428 21.2519 222.428 20.475C222.43 19.0269 222.45 17.5768 222.418 16.1287C222.406 15.561 222.56 15.3379 223.163 15.3498C224.92 15.3837 226.679 15.3737 228.438 15.3538C228.934 15.3478 229.123 15.5052 229.115 16.0191C229.089 17.5648 229.119 19.1106 229.099 20.6543C229.093 21.1005 229.228 21.2698 229.693 21.2618C231.103 21.2379 232.513 21.2678 233.923 21.2459C234.407 21.2379 234.565 21.4172 234.557 21.8893C234.537 23.3952 234.537 24.903 234.557 26.4089C234.563 26.8691 234.382 27.0125 233.939 27.0065C232.549 26.9886 231.157 27.0185 229.766 26.9906C229.27 26.9806 229.085 27.118 229.095 27.6399C229.121 29.2056 229.101 30.7712 229.101 32.3349Z" fill="#153853"/>
<path d="M208.738 32.8793C208.738 29.2679 208.738 25.6566 208.738 22.0473C208.738 21.2585 208.742 21.2545 209.546 21.2545C211.285 21.2525 213.024 21.2664 214.761 21.2465C215.231 21.2405 215.411 21.3959 215.411 21.8779C215.401 29.2162 215.401 36.5524 215.411 43.8906C215.411 44.3806 215.219 44.518 214.757 44.5121C213 44.4941 211.241 44.4842 209.485 44.5161C208.907 44.526 208.72 44.3607 208.726 43.7691C208.75 40.1398 208.738 36.5086 208.738 32.8793Z" fill="#153853"/>
<path d="M212.052 16.9106C211.715 16.9185 211.474 16.7711 211.263 16.56C210.347 15.6457 209.423 14.7394 208.52 13.8131C208.03 13.3112 208.016 12.8411 208.504 12.3351C209.431 11.377 210.375 10.4348 211.335 9.5106C211.793 9.06839 212.271 9.07039 212.725 9.50861C213.683 10.4348 214.626 11.379 215.554 12.3331C216.028 12.8212 216.016 13.3152 215.53 13.8131C214.612 14.7533 213.675 15.6736 212.747 16.6038C212.546 16.803 212.325 16.9404 212.052 16.9106Z" fill="#153853"/>
</svg>
