<svg width="200" height="56" viewBox="0 0 200 56" fill="none" xmlns="http://www.w3.org/2000/svg">
<path d="M27.7044 55.4222C26.8841 55.4375 26.1979 55.1436 25.6187 54.5662C17.3728 46.3202 9.12344 38.0777 0.879184 29.8317C-0.284251 28.6683 -0.297839 26.9325 0.867295 25.7571C3.43025 23.1721 6.04755 20.6397 8.57993 18.0258C14.1593 12.2664 19.912 6.67511 25.5559 0.978525C26.845 -0.322484 28.5502 -0.325881 29.8445 0.966636C35.2744 6.39147 40.7383 11.784 46.1156 17.2598C48.8738 20.0673 51.6712 22.8324 54.4328 25.6365C55.7101 26.9342 55.7237 28.6411 54.4295 29.9336C48.794 35.5708 43.1535 41.2062 37.5163 46.8416C34.9772 49.3808 32.438 51.9183 29.8971 54.4558C29.2925 55.0638 28.5876 55.4494 27.7044 55.4222ZM32.156 34.353C34.6935 34.353 37.2293 34.3462 39.7668 34.3598C40.1574 34.3615 40.4479 34.2477 40.7264 33.9674C42.6507 32.0244 44.5819 30.0899 46.53 28.1706C46.8561 27.8496 46.8561 27.6577 46.5283 27.3401C44.5649 25.4395 42.6898 23.4456 40.6941 21.5773C40.4343 21.3344 40.1761 21.2189 39.8194 21.2189C34.7122 21.2274 29.605 21.2291 24.4995 21.2155C24.0052 21.2138 23.8439 21.3565 23.8473 21.8592C23.8642 25.8115 23.8642 29.7638 23.8473 33.716C23.8456 34.2171 24.0018 34.3666 24.4978 34.3632C27.0488 34.3411 29.6033 34.353 32.156 34.353ZM16.9855 19.2946C16.8055 19.4559 16.6917 19.5476 16.5898 19.6495C14.0268 22.2091 11.4707 24.7771 8.89584 27.3248C8.55276 27.6628 8.56635 27.8598 8.90094 28.191C11.4639 30.7285 14.0082 33.2829 16.5609 35.8306C16.6713 35.941 16.7545 36.1024 16.9855 36.1143C16.9855 30.5383 16.9855 24.9691 16.9855 19.2946ZM22.0027 14.2604C22.0962 14.2757 22.1607 14.296 22.2235 14.296C25.8124 14.2977 29.3995 14.2994 32.9883 14.296C33.097 14.296 33.2515 14.3453 33.2974 14.2145C33.3501 14.065 33.1904 13.9903 33.1021 13.9037C31.4053 12.2035 29.6984 10.5119 28.0135 8.79986C27.7163 8.49754 27.555 8.57907 27.3036 8.83383C25.6357 10.517 23.956 12.1883 22.2813 13.8646C22.1777 13.9665 22.0435 14.0464 22.0027 14.2604ZM27.7299 41.1807C26.0009 41.1807 24.2702 41.179 22.5411 41.1824C22.3985 41.1824 22.2032 41.1145 22.1284 41.2554C22.0401 41.4202 22.2422 41.5051 22.339 41.6002C24.0018 43.2681 25.6731 44.9275 27.3274 46.6039C27.6161 46.8977 27.8029 46.8909 28.0883 46.6005C29.7324 44.936 31.3917 43.2902 33.0426 41.6325C33.1496 41.5255 33.3687 41.4338 33.2821 41.2521C33.2176 41.1145 33.0121 41.1824 32.8694 41.1824C31.1557 41.179 29.4419 41.1807 27.7299 41.1807Z" fill="#46F7AD"/>
<path d="M94.801 20.7971C95.5908 19.8443 96.35 19.1038 97.2977 18.5705C100.452 16.799 106.074 17.6482 107.05 23.1257C107.186 23.8866 107.247 24.6577 107.247 25.4305C107.247 29.3675 107.247 33.3028 107.247 37.2398C107.247 37.9446 107.244 37.9463 106.532 37.9463C105.099 37.948 103.665 37.948 102.232 37.9463C101.562 37.9463 101.561 37.9429 101.561 37.255C101.561 33.9278 101.566 30.6005 101.556 27.275C101.554 26.5362 101.496 25.7956 101.274 25.0823C100.749 23.4008 99.4191 22.7962 97.9125 22.9694C95.9355 23.1987 95.0982 24.1872 94.8774 26.1744C94.8146 26.7349 94.8044 27.2886 94.8027 27.8474C94.7993 31.0099 94.7925 34.1724 94.8095 37.3332C94.8129 37.8019 94.6787 37.965 94.1963 37.9565C92.7476 37.9293 91.2971 37.948 89.8466 37.9463C89.1078 37.9463 89.1061 37.9446 89.1061 37.2211C89.1061 29.4796 89.1061 21.7398 89.1061 13.9982C89.1061 13.2237 89.1044 12.4493 89.1061 11.6765C89.1078 11.0345 89.1197 11.0209 89.7787 11.0209C91.2292 11.0192 92.6779 11.0192 94.1284 11.0209C94.7891 11.0226 94.7993 11.0311 94.7993 11.6765C94.801 14.4925 94.7993 17.3085 94.7993 20.1262C94.801 20.3012 94.801 20.4778 94.801 20.7971Z" fill="white"/>
<path d="M161.731 24.5261C161.938 24.3324 162.058 24.2254 162.172 24.1116C164.037 22.2501 165.907 20.3903 167.762 18.5187C168.037 18.2418 168.316 18.111 168.713 18.1144C170.591 18.1314 172.47 18.1212 174.348 18.1246C174.488 18.1246 174.683 18.0533 174.751 18.2146C174.819 18.3777 174.629 18.4643 174.532 18.5628C172.278 20.8268 170.029 23.096 167.758 25.3413C167.383 25.7116 167.417 25.9918 167.68 26.3943C170.075 30.0579 172.456 33.7333 174.838 37.4054C174.931 37.5497 175.133 37.6975 175.024 37.8758C174.939 38.0168 174.719 37.9455 174.557 37.9455C172.762 37.9489 170.965 37.937 169.17 37.9557C168.793 37.9591 168.58 37.8283 168.38 37.509C166.841 35.0734 165.277 32.6548 163.736 30.2226C163.526 29.8914 163.443 29.8269 163.067 30.1105C161.962 30.9445 161.579 31.972 161.705 33.3444C161.827 34.6675 161.714 36.0109 161.741 37.3442C161.751 37.8283 161.578 37.9624 161.112 37.9557C159.613 37.9319 158.113 37.9353 156.615 37.954C156.2 37.9591 156.032 37.8521 156.032 37.402C156.043 28.7875 156.043 20.1729 156.034 11.5584C156.034 11.1457 156.182 11.0098 156.581 11.0132C158.096 11.0268 159.613 11.0336 161.128 11.0098C161.615 11.0013 161.739 11.1882 161.737 11.6484C161.724 15.7009 161.729 19.7517 161.729 23.8042C161.731 24.0046 161.731 24.1999 161.731 24.5261Z" fill="white"/>
<path d="M140.129 24.4197C140.314 24.3806 140.398 24.2278 140.51 24.1157C142.412 22.2202 144.314 20.3247 146.205 18.4174C146.422 18.1983 146.644 18.1151 146.943 18.1168C148.854 18.1252 150.767 18.1201 152.677 18.1235C152.818 18.1235 153.02 18.0556 153.085 18.2034C153.166 18.3868 152.954 18.4802 152.847 18.5889C150.614 20.8292 148.387 23.0745 146.128 25.291C145.737 25.6748 145.737 25.9551 146.014 26.3797C148.397 30.033 150.768 33.6932 153.141 37.3533C153.177 37.4094 153.216 37.462 153.253 37.5164C153.46 37.8221 153.382 37.9529 153.01 37.9512C151.923 37.9444 150.834 37.9495 149.747 37.9495C149.005 37.9495 148.265 37.9342 147.523 37.9563C147.156 37.9665 146.935 37.8561 146.726 37.5266C145.17 35.0638 143.582 32.6215 142.021 30.1621C141.812 29.8326 141.727 29.8581 141.422 30.0891C140.309 30.9281 139.913 31.9778 140.043 33.3705C140.165 34.6936 140.054 36.037 140.077 37.3703C140.085 37.8306 139.917 37.9648 139.472 37.958C138.006 37.9359 136.539 37.9512 135.073 37.9495C134.383 37.9495 134.382 37.9478 134.382 37.226C134.382 29.5337 134.382 21.8414 134.382 14.1492C134.382 13.3085 134.405 12.4677 134.373 11.6287C134.354 11.1395 134.543 11.0071 135.005 11.0139C136.488 11.0342 137.97 11.0359 139.453 11.0139C139.927 11.0071 140.078 11.1684 140.077 11.6406C140.063 15.7253 140.068 19.8101 140.071 23.8966C140.075 24.0664 140.022 24.2515 140.129 24.4197Z" fill="white"/>
<path d="M123.449 30.1315C121.373 30.1315 119.298 30.1315 117.222 30.1315C116.667 30.1315 116.623 30.2046 116.821 30.7328C117.499 32.5315 118.754 33.5556 120.704 33.7577C122.53 33.948 124.123 33.4605 125.504 32.2869C125.833 32.0066 126.003 32.0661 126.266 32.3378C127.032 33.131 127.804 33.9225 128.61 34.6732C128.967 35.0044 128.945 35.2201 128.62 35.5411C127.197 36.9525 125.499 37.834 123.539 38.2009C121.703 38.5439 119.875 38.4964 118.078 37.9512C114.257 36.7928 111.93 34.2299 111.181 30.3371C110.539 26.9962 111.174 23.883 113.355 21.1926C114.989 19.1783 117.148 18.0998 119.721 17.8144C121.565 17.6106 123.332 17.8807 125.01 18.6569C127.308 19.7201 128.739 21.5646 129.601 23.8932C130.166 25.4218 130.329 27.0234 130.378 28.6386C130.385 28.8832 130.348 29.1295 130.312 29.374C130.205 30.1298 130.203 30.1298 129.426 30.1298C127.435 30.1315 125.441 30.1315 123.449 30.1315ZM120.68 26.5173C121.898 26.5173 123.116 26.5206 124.334 26.5139C124.52 26.5122 124.792 26.6073 124.745 26.2217C124.503 24.2821 123.219 22.3713 120.803 22.351C118.464 22.3306 117.1 23.9492 116.65 26.0994C116.584 26.4187 116.689 26.5308 117.029 26.5257C118.246 26.5071 119.464 26.519 120.68 26.5173Z" fill="white"/>
<path d="M72.9217 28.2463C72.9251 29.8649 73.4431 31.3715 74.8206 32.4619C76.6073 33.8767 79.3384 33.7917 81.1965 32.3192C81.9999 31.6823 81.9999 31.6823 82.7183 32.4007C83.4877 33.1701 84.2486 33.9446 85.0282 34.7021C85.2813 34.9467 85.3153 35.1114 85.0469 35.3849C83.2754 37.1852 81.1575 38.1703 78.62 38.3606C76.2252 38.5406 73.9849 38.1262 71.9689 36.8286C69.231 35.0673 67.6718 32.5366 67.3491 29.2807C67.0111 25.8668 67.986 22.9013 70.4844 20.5116C72.1846 18.8862 74.2516 18.0302 76.5955 17.8162C78.7746 17.6175 80.8619 17.9096 82.8169 18.9236C83.6083 19.3346 84.3217 19.8645 84.9569 20.4997C85.1675 20.7103 85.1709 20.8411 84.9501 21.0568C83.9022 22.081 82.8627 23.1153 81.8419 24.1667C81.5651 24.452 81.4343 24.2533 81.2441 24.0919C79.6849 22.7587 77.9185 22.2899 75.967 23.0202C74.2992 23.6435 73.4397 24.9887 73.0508 26.677C72.9387 27.1678 72.9438 27.657 72.9217 28.2463Z" fill="white"/>
<path d="M195.348 27.571C195.348 28.855 195.344 30.1407 195.349 31.4248C195.354 32.736 195.874 33.2336 197.18 33.2523C197.973 33.2625 198.712 33.0688 199.426 32.758C199.752 32.6154 199.903 32.6171 199.899 33.0349C199.886 34.2696 199.889 35.5061 199.898 36.7409C199.899 37.0228 199.796 37.1978 199.544 37.3268C198.461 37.8805 197.331 38.2287 196.1 38.2542C195.03 38.2763 193.974 38.2814 192.931 37.9621C190.989 37.3676 189.923 35.7677 189.767 33.7941C189.5 30.4431 189.712 27.0801 189.658 23.724C189.646 23.0259 189.654 23.0259 188.951 23.0242C188.539 23.0242 188.128 23.0157 187.715 23.0242C187.428 23.031 187.29 22.9121 187.292 22.6183C187.297 21.2511 187.295 19.8838 187.294 18.5166C187.294 18.2125 187.453 18.1174 187.73 18.1225C188.158 18.1293 188.586 18.1242 189.016 18.1225C189.656 18.1208 189.658 18.1208 189.658 17.4584C189.66 16.2237 189.677 14.9872 189.649 13.7524C189.639 13.2684 189.77 13.0781 190.285 13.0883C191.783 13.1172 193.282 13.1087 194.782 13.0917C195.205 13.0866 195.366 13.2208 195.359 13.659C195.337 14.977 195.363 16.295 195.346 17.6113C195.341 17.9918 195.456 18.1361 195.852 18.1293C197.055 18.1089 198.257 18.1344 199.46 18.1157C199.872 18.1089 200.006 18.2618 200 18.6643C199.983 19.9484 199.983 21.2341 200 22.5181C200.005 22.9104 199.85 23.0327 199.473 23.0276C198.288 23.0124 197.1 23.0378 195.915 23.0141C195.492 23.0056 195.334 23.1228 195.343 23.5677C195.365 24.9027 195.348 26.2377 195.348 27.571Z" fill="white"/>
<path d="M177.985 28.0352C177.985 24.9559 177.985 21.8766 177.985 18.799C177.985 18.1265 177.988 18.1231 178.674 18.1231C180.157 18.1214 181.64 18.1332 183.121 18.1163C183.522 18.1112 183.674 18.2436 183.674 18.6547C183.666 24.9117 183.666 31.1671 183.674 37.4242C183.674 37.842 183.511 37.9592 183.117 37.9541C181.619 37.9388 180.12 37.9303 178.622 37.9575C178.129 37.966 177.969 37.825 177.974 37.3206C177.995 34.226 177.985 31.1297 177.985 28.0352Z" fill="white"/>
<path d="M180.811 14.4191C180.524 14.4259 180.318 14.3002 180.138 14.1202C179.357 13.3406 178.569 12.5678 177.799 11.778C177.381 11.35 177.37 10.9492 177.786 10.5178C178.575 9.70084 179.38 8.89747 180.199 8.10939C180.59 7.73234 180.997 7.73404 181.385 8.10769C182.202 8.89747 183.005 9.70253 183.796 10.5161C184.201 10.9322 184.19 11.3534 183.776 11.778C182.993 12.5797 182.195 13.3644 181.403 14.1576C181.232 14.3274 181.043 14.4446 180.811 14.4191Z" fill="white"/>
</svg>
