<svg width="45" height="45" viewBox="0 0 45 45" fill="none" xmlns="http://www.w3.org/2000/svg">
<circle cx="22.5" cy="22.5" r="22.5" fill="#EDF7FF"/>
<path fill-rule="evenodd" clip-rule="evenodd" d="M31.4023 24.5801C31.76 24.7701 32.036 25.0701 32.2301 25.3701C32.6083 25.9901 32.5776 26.7501 32.2097 27.4201L31.4943 28.6201C31.1162 29.2601 30.411 29.6601 29.6855 29.6601C29.3278 29.6601 28.9292 29.5601 28.6022 29.3601C28.3365 29.1901 28.0299 29.1301 27.7029 29.1301C26.6911 29.1301 25.8429 29.9601 25.8122 30.9501C25.8122 32.1001 24.872 33.0001 23.6968 33.0001H22.3069C21.1215 33.0001 20.1813 32.1001 20.1813 30.9501C20.1608 29.9601 19.3126 29.1301 18.3009 29.1301C17.9636 29.1301 17.657 29.1901 17.4015 29.3601C17.0745 29.5601 16.6657 29.6601 16.3183 29.6601C15.5824 29.6601 14.8773 29.2601 14.4992 28.6201L13.794 27.4201C13.4159 26.7701 13.3955 25.9901 13.7736 25.3701C13.9371 25.0701 14.2437 24.7701 14.5911 24.5801C14.8773 24.4401 15.0612 24.2101 15.235 23.9401C15.746 23.0801 15.4394 21.9501 14.5707 21.4401C13.559 20.8701 13.2319 19.6001 13.8145 18.6101L14.4992 17.4301C15.0919 16.4401 16.3591 16.0901 17.3811 16.6701C18.2702 17.1501 19.425 16.8301 19.9462 15.9801C20.1097 15.7001 20.2017 15.4001 20.1813 15.1001C20.1608 14.7101 20.2732 14.3401 20.4674 14.0401C20.8455 13.4201 21.5302 13.0201 22.2763 13.0001H23.7172C24.4735 13.0001 25.1582 13.4201 25.5363 14.0401C25.7203 14.3401 25.8429 14.7101 25.8122 15.1001C25.7918 15.4001 25.8838 15.7001 26.0473 15.9801C26.5685 16.8301 27.7233 17.1501 28.6226 16.6701C29.6344 16.0901 30.9118 16.4401 31.4943 17.4301L32.179 18.6101C32.7718 19.6001 32.4447 20.8701 31.4228 21.4401C30.5541 21.9501 30.2475 23.0801 30.7687 23.9401C30.9322 24.2101 31.1162 24.4401 31.4023 24.5801ZM20.1097 23.0101C20.1097 24.5801 21.4076 25.8301 23.0121 25.8301C24.6165 25.8301 25.8838 24.5801 25.8838 23.0101C25.8838 21.4401 24.6165 20.1801 23.0121 20.1801C21.4076 20.1801 20.1097 21.4401 20.1097 23.0101Z" fill="#153853"/>
</svg>
