<svg width="33" height="33" viewBox="0 0 33 33" fill="none" xmlns="http://www.w3.org/2000/svg">
<path fill-rule="evenodd" clip-rule="evenodd" d="M12.3023 9.14311C12.3023 11.6098 10.2688 13.6091 7.75809 13.6091C5.24886 13.6091 3.21387 11.6098 3.21387 9.14311C3.21387 6.67789 5.24886 4.67859 7.75809 4.67859C10.2688 4.67859 12.3023 6.67789 12.3023 9.14311ZM29.7804 7.18764C30.8786 7.18764 31.7713 8.06468 31.7713 9.14366C31.7713 10.2241 30.8786 11.1011 29.7804 11.1011H21.0913C19.9916 11.1011 19.0989 10.2241 19.0989 9.14366C19.0989 8.06468 19.9916 7.18764 21.0913 7.18764H29.7804ZM5.20628 23.8171H13.8954C14.9951 23.8171 15.8878 24.6941 15.8878 25.7745C15.8878 26.8535 14.9951 27.732 13.8954 27.732H5.20628C4.10656 27.732 3.21387 26.8535 3.21387 25.7745C3.21387 24.6941 4.10656 23.8171 5.20628 23.8171ZM27.2283 30.1855C29.739 30.1855 31.7726 28.1862 31.7726 25.721C31.7726 23.2543 29.739 21.255 27.2283 21.255C24.7191 21.255 22.6841 23.2543 22.6841 25.721C22.6841 28.1862 24.7191 30.1855 27.2283 30.1855Z" fill="#153853"/>
</svg>
