<svg width="10" height="8" viewBox="0 0 10 8" fill="none" xmlns="http://www.w3.org/2000/svg">
<path d="M3.80667 8C3.50245 8 3.21432 7.88399 3.0297 7.68397L0.530939 4.986C0.453684 4.90268 0.397284 4.80774 0.364961 4.70659C0.332639 4.60545 0.325028 4.50009 0.342564 4.39654C0.360101 4.293 0.40244 4.19329 0.467162 4.10312C0.531884 4.01295 0.61772 3.93409 0.719762 3.87104C0.821767 3.80774 0.938058 3.7615 1.06197 3.73499C1.18588 3.70848 1.31498 3.70221 1.44186 3.71654C1.56874 3.73088 1.69092 3.76553 1.80138 3.81852C1.91184 3.87151 2.00842 3.9418 2.08558 4.02534L3.72974 5.79922L7.86357 0.374717C8.00066 0.195615 8.21909 0.0682581 8.47095 0.0205834C8.7228 -0.0270913 8.98751 0.00880839 9.20701 0.120408C9.66368 0.352429 9.80425 0.843904 9.51892 1.21765L4.63469 7.62397C4.55132 7.73382 4.43639 7.82538 4.2999 7.89071C4.1634 7.95604 4.00946 7.99316 3.85143 7.99886C3.83604 8 3.82205 8 3.80667 8V8Z" fill="#153853"/>
</svg>
