<svg width="400" height="400" viewBox="0 0 400 400" fill="none" xmlns="http://www.w3.org/2000/svg">
<path d="M300 33.332H216.667C216.667 42.4987 209.167 49.9987 200 49.9987C190.834 49.9987 183.334 42.4987 183.334 33.332H100C81.667 33.332 66.667 48.332 66.667 66.6654V333.332C66.667 351.665 81.667 366.665 100 366.665H300C318.334 366.665 333.334 351.665 333.334 333.332V66.6654C333.334 48.332 318.334 33.332 300 33.332Z" fill="#455A64"/>
<path d="M300 341.665H100C95.0003 341.665 91.667 338.332 91.667 333.332V66.6654C91.667 61.6654 95.0003 58.332 100 58.332H300C305 58.332 308.334 61.6654 308.334 66.6654V333.332C308.334 338.332 305 341.665 300 341.665Z" fill="white"/>
<path d="M216.667 33.332C216.667 42.4987 209.167 49.9987 200 49.9987C190.833 49.9987 183.333 42.4987 183.333 33.332H125V66.6654C125 75.832 132.5 83.332 141.667 83.332H258.333C267.5 83.332 275 75.832 275 66.6654V33.332H216.667Z" fill="#90A4AE"/>
<path d="M200 0C181.667 0 166.667 15 166.667 33.3333C166.667 51.6667 181.667 66.6667 200 66.6667C218.334 66.6667 233.334 51.6667 233.334 33.3333C233.334 15 218.334 0 200 0ZM200 50C190.834 50 183.334 42.5 183.334 33.3333C183.334 24.1667 190.834 16.6667 200 16.6667C209.167 16.6667 216.667 24.1667 216.667 33.3333C216.667 42.5 209.167 50 200 50Z" fill="#90A4AE"/>
<path d="M175 166.664H275V183.331H175V166.664Z" fill="#46F7AD"/>
<path d="M125 158.332H158.333V191.665H125V158.332Z" fill="#46F7AD"/>
<path d="M175 241.664H275V258.331H175V241.664Z" fill="#153853"/>
<path d="M125 233.332H158.333V266.665H125V233.332Z" fill="#153853"/>
</svg>
