<svg width="91" height="80" viewBox="0 0 91 80" fill="none" xmlns="http://www.w3.org/2000/svg">
<circle r="20" transform="matrix(1 0 0 -1 20 60)" fill="#39F2A5"/>
<circle r="38" transform="matrix(-1 0 0 1 51 40)" stroke="#80FFCA" stroke-width="4"/>
<path d="M51.2896 56.528C59.6416 56.528 64.5856 52.448 64.5856 46.016C64.5856 41.648 61.8976 38.816 57.9136 37.952C61.3216 36.752 63.5776 34.352 63.5776 30.512C63.5776 25.136 59.1616 21.2 51.6256 21.2C43.8016 21.2 39.3376 25.808 38.9536 32.096H45.8176C46.2016 28.88 48.2176 26.912 51.4816 26.912C54.6496 26.912 56.2336 28.736 56.2336 31.184C56.2336 34.112 54.6016 35.744 51.0016 35.744H48.5056V40.928H51.1936C54.8896 40.928 56.7136 42.608 56.7136 45.872C56.7136 48.944 54.8896 50.816 51.0016 50.816C46.8736 50.816 45.0976 48.416 44.8096 45.104H37.8016C38.0896 52.064 42.5536 56.528 51.2896 56.528Z" fill="#153853"/>
</svg>
