<svg width="32" height="32" viewBox="0 0 32 32" fill="none" xmlns="http://www.w3.org/2000/svg">
<path d="M3.99967 17.9987L2.99967 15.9987H9.99967L9.19967 13.9987H2.66634L1.66634 11.9987H12.0663L11.2663 9.9987H1.47967L0.333008 7.9987H5.33301C5.33301 7.29145 5.61396 6.61318 6.11406 6.11308C6.61415 5.61298 7.29243 5.33203 7.99967 5.33203H23.9997V10.6654H27.9997L31.9997 15.9987V22.6654H29.333C29.333 23.7262 28.9116 24.7436 28.1614 25.4938C27.4113 26.2439 26.3939 26.6654 25.333 26.6654C24.2721 26.6654 23.2547 26.2439 22.5046 25.4938C21.7544 24.7436 21.333 23.7262 21.333 22.6654H15.9997C15.9997 23.7262 15.5782 24.7436 14.8281 25.4938C14.078 26.2439 13.0605 26.6654 11.9997 26.6654C10.9388 26.6654 9.92139 26.2439 9.17125 25.4938C8.4211 24.7436 7.99967 23.7262 7.99967 22.6654H5.33301V17.9987H3.99967ZM25.333 24.6654C25.8634 24.6654 26.3721 24.4546 26.7472 24.0796C27.1223 23.7045 27.333 23.1958 27.333 22.6654C27.333 22.1349 27.1223 21.6262 26.7472 21.2512C26.3721 20.8761 25.8634 20.6654 25.333 20.6654C24.8026 20.6654 24.2939 20.8761 23.9188 21.2512C23.5437 21.6262 23.333 22.1349 23.333 22.6654C23.333 23.1958 23.5437 23.7045 23.9188 24.0796C24.2939 24.4546 24.8026 24.6654 25.333 24.6654ZM27.333 12.6654H23.9997V15.9987H29.9463L27.333 12.6654ZM11.9997 24.6654C12.5301 24.6654 13.0388 24.4546 13.4139 24.0796C13.789 23.7045 13.9997 23.1958 13.9997 22.6654C13.9997 22.1349 13.789 21.6262 13.4139 21.2512C13.0388 20.8761 12.5301 20.6654 11.9997 20.6654C11.4692 20.6654 10.9605 20.8761 10.5855 21.2512C10.2104 21.6262 9.99967 22.1349 9.99967 22.6654C9.99967 23.1958 10.2104 23.7045 10.5855 24.0796C10.9605 24.4546 11.4692 24.6654 11.9997 24.6654Z" fill="#00A9FF"/>
</svg>
