<svg width="100" height="100" viewBox="0 0 100 100" fill="none" xmlns="http://www.w3.org/2000/svg">
<path d="M54.6816 33.9609C54.6816 33.9609 55.0957 32.7656 55.9941 32.3516C56.8848 31.9375 58.377 31.875 58.377 31.875L60.877 61.4453L58.8457 76.0391C58.8457 76.0391 58.252 77.7656 56.6973 77.8281C55.1504 77.8906 42.2676 77.8281 41.1348 77.8281C40.002 77.8281 39.6426 76.3359 39.5879 75.6797C39.5254 75.0234 39.5488 73.9219 39.5488 73.9219L34.0488 73.8984C34.0488 73.8984 33.7285 76.2422 34.2598 77.7187C34.7207 79 35.1348 80.0234 35.127 80.4609C35.1191 81.0859 34.291 81.7109 33.3379 81.6562C32.3848 81.5937 30.9551 80.3438 30.002 79.5703C29.0488 78.7969 13.7676 78.9766 13.7676 78.9766C13.7676 78.9766 13.0332 80.3359 12.2129 81.1562C11.7207 81.6484 10.9238 81.8906 10.2051 81.8906C9.48633 81.8906 8.5957 80.9375 8.77539 80.2812C8.95508 79.625 9.76757 78.1172 9.9082 76.6484C9.9707 75.9844 9.89258 74.1328 9.56446 73.8281C9.48633 73.7578 8.29883 73.7969 7.18945 73.6797C5.29883 73.4844 3.4082 71.0391 3.17383 69.1328C2.93164 67.2266 3.11133 61.2031 3.11133 61.2031L54.6816 33.9609Z" fill="#B3AFAF"/>
<path d="M59.3457 67.0703H3.07227C3.07227 67.0703 2.93945 68.6484 3.21289 69.6641C3.35786 70.2032 3.60447 70.7096 3.93945 71.1562L59.0254 71.1484L59.3457 67.0703Z" fill="#9A9A9A"/>
<path d="M79.0879 64.5156L91.002 68.2031L96.9551 66.1485C96.9551 66.1485 96.7441 54.9453 96.6738 53.8125C96.6035 52.6797 96.3223 51.6875 95.252 50.9766C94.1895 50.2656 91.2129 48.4922 91.2129 48.4922C91.2129 48.4922 82.0645 33.8125 81.2832 32.75C80.502 31.6875 79.541 30.3906 77.2676 30.1797C74.9941 29.9688 60.9629 30.1407 59.6895 30.211C58.416 30.2813 57.4629 30.8594 57.4629 33.625C57.4629 36.3906 57.5332 57.5 57.6035 58.5625C57.6738 59.625 62.9941 63.5235 62.9941 63.5235L79.0879 64.5156Z" fill="#153853"/>
<path d="M61.7432 77.9453C61.7432 77.9453 60.6025 77.9766 59.8135 77.8672C59.0244 77.7578 57.8369 76.9687 57.7822 75.1016C57.751 73.9922 57.6025 58.5625 57.6025 58.5625L78.8525 58.6094L85.7275 66.1328L96.9541 66.1484C96.9541 66.1484 97.001 70.5625 96.9697 71.7422C96.9385 72.9297 90.8291 75.5156 90.8291 75.5156L61.7432 77.9453Z" fill="#F8F9FA"/>
<path d="M96.9702 71.7434H84.1733C84.1733 71.7434 81.4312 66.2746 73.5483 66.3684C61.9702 66.509 61.7358 77.9387 61.7358 77.9387H91.8921C93.5874 77.9387 96.0093 77.3762 96.6265 75.2356C97.1499 73.4387 96.9702 71.7434 96.9702 71.7434Z" fill="#153853"/>
<path d="M89.134 51.5615C89.134 51.5615 89.134 50.2881 89.97 50.2412C90.8059 50.1943 91.7278 50.7178 92.5637 51.4287C93.4465 52.1787 93.884 52.8584 94.0559 53.4521C94.3215 54.3349 94.1028 55.124 92.7356 55.1631C91.0637 55.2178 64.5168 55.0459 63.2903 54.9443C61.7512 54.8115 60.8293 54.1553 60.8762 53.0068C60.9153 51.9053 61.7121 51.5537 65.009 51.5146C68.3059 51.4756 89.134 51.5615 89.134 51.5615Z" fill="white"/>
<path d="M96.7051 55.2894C96.7051 55.2894 88.7285 55.0394 88.5566 55.2347C88.3145 55.5238 88.2676 59.2894 88.3535 59.8597C88.4395 60.4301 89.1895 60.8285 90.1113 60.8676C91.0332 60.9066 96.8379 61.0004 96.8379 61.0004L96.7051 55.2894Z" fill="#FDEDC5"/>
<path d="M63.8611 50.1978C62.6268 50.1978 62.1893 48.7916 62.1893 47.8228V35.565C62.1893 34.5963 62.8064 34.0728 64.7361 33.9791C66.6736 33.8931 75.5018 33.9947 76.4705 34.0259C77.9627 34.0728 78.9783 34.7291 80.3377 36.6197C81.2205 37.8463 86.6658 46.8619 87.1033 47.6041C87.5408 48.3541 88.0721 50.3306 85.783 50.3697C83.4158 50.4166 63.8611 50.1978 63.8611 50.1978Z" fill="#5F6369"/>
<path d="M84.6504 48.1333H64.9629C64.5644 48.1333 64.2129 47.6958 64.2129 47.1646C64.2129 46.6333 64.1816 38.3364 64.166 37.8443C64.1191 36.4849 65.1348 36.1724 66.0098 36.2193C66.8926 36.2661 75.7832 36.2349 76.3066 36.2583C77.3145 36.3052 78.3145 37.6568 79.1895 38.9927C80.2441 40.6099 84.6504 48.1333 84.6504 48.1333Z" fill="#AFE3FB"/>
<path d="M84.3466 49.5859C84.2606 51.5625 81.0966 53.1875 80.2997 53.2344C79.5106 53.2813 79.0263 51.7422 78.9403 49.6719C78.8544 47.6016 79.6825 45.8906 80.3466 45.8906C81.0028 45.8906 84.4169 47.9141 84.3466 49.5859Z" fill="#5F6369"/>
<path d="M83.6588 79.1892C83.5963 83.0954 80.4869 88.7126 73.7213 88.7517C66.9557 88.7907 63.44 83.6032 63.6588 78.2829C63.8775 72.8767 68.0729 69.0564 74.1119 69.2282C79.7604 69.4001 83.7447 73.7907 83.6588 79.1892Z" fill="#4E433D"/>
<path d="M78.8217 78.9617C78.7905 81.0164 77.1577 83.9851 73.5952 84.0086C70.0327 84.032 68.3139 81.4539 68.4233 78.6492C68.5405 75.7976 70.8139 73.6726 73.7983 73.7195C76.767 73.7586 78.8608 76.1101 78.8217 78.9617Z" fill="#C8C8C8"/>
<path d="M32.0963 79.1892C32.0338 83.0954 28.9244 88.7126 22.1588 88.7517C15.3932 88.7907 11.8775 83.6032 12.0963 78.2829C12.315 72.8767 16.5104 69.0564 22.5494 69.2282C28.1979 69.4001 32.1822 73.7907 32.0963 79.1892Z" fill="#4E433D"/>
<path d="M27.2592 78.9617C27.228 81.0164 25.5952 83.9851 22.0327 84.0086C18.478 84.032 16.7514 81.4539 16.8608 78.6492C16.978 75.7976 19.2514 73.6726 22.2358 73.7195C25.2045 73.7586 27.2983 76.1101 27.2592 78.9617Z" fill="#C8C8C8"/>
<path d="M55.5566 14.3438C55.5566 12.2969 54.6582 11.4766 53.0176 11.5625C51.377 11.6406 6.41601 11.3984 4.94726 11.3984C3.47851 11.3984 2.90039 12.9531 2.90039 13.8516C2.90039 14.75 3.18164 60.3281 3.11914 61.2109C3.06445 62.0938 3.30664 63.3203 4.86132 63.4844C6.41601 63.6484 52.5254 63.5625 53.5098 63.4844C54.4941 63.4062 55.7207 62.5859 55.7207 61.4375C55.7207 60.2813 55.5566 15.4063 55.5566 14.3438Z" fill="#D16E1D"/>
<path d="M51.4629 16.1406C51.4629 17.2031 51.791 57.0078 51.791 57.9922C51.791 58.9766 51.2988 60.125 49.9863 60.125C48.6738 60.125 8.38475 60.2031 7.56444 60.125C6.74413 60.0469 6.25195 59.5547 6.17382 58.2422C6.0957 56.9297 6.0957 16.9687 6.0957 15.6562C6.0957 14.3437 7.4082 14.2656 8.79882 14.2656C10.1894 14.2656 49.5801 14.3437 50.1582 14.4297C50.7285 14.5 51.4629 15.0781 51.4629 16.1406Z" fill="#F5B03A"/>
<path d="M41.8222 61.5156C41.8691 47.1016 41.9706 13.4844 41.8066 12.5703L40.6503 12.7813L39.4862 12.9219C39.5956 14.2109 39.5409 42.6797 39.4784 61.5078L41.8222 61.5156Z" fill="#D16E1D"/>
<path d="M29.8691 12.7031H27.5254V61.5938H29.8691V12.7031Z" fill="#D16E1D"/>
<path d="M18.041 12.7422H15.6973V61.3906H18.041V12.7422Z" fill="#D16E1D"/>
</svg>
