<svg width="25" height="24" viewBox="0 0 25 24" fill="none" xmlns="http://www.w3.org/2000/svg">
<path fill-rule="evenodd" clip-rule="evenodd" d="M8.96583 5.23624C8.74276 5.53752 8.76838 5.96727 9.0502 6.24C9.3502 6.54 9.8402 6.54 10.1402 6.24L11.7302 4.64V8.78H13.2702V4.64L14.8602 6.24L14.9464 6.31438C15.2477 6.53752 15.6775 6.51273 15.9502 6.24C16.1002 6.09 16.1802 5.89 16.1802 5.69C16.1802 5.5 16.1002 5.3 15.9502 5.15L13.0402 2.23L12.9495 2.14848C12.8202 2.0512 12.6602 2 12.5002 2C12.2902 2 12.1002 2.08 11.9502 2.23L9.0402 5.15L8.96583 5.23624ZM6.73116 8.78512C4.37791 8.89627 2.5 10.8758 2.5 13.2875V18.2526L2.50484 18.4651C2.6141 20.8599 4.56029 22.7802 6.95 22.7802H18.06L18.2688 22.7753C20.6221 22.6641 22.5 20.6843 22.5 18.2628V13.3078L22.4951 13.0945C22.3853 10.6909 20.43 8.7802 18.05 8.7802H13.27V14.8849L13.2629 14.9922C13.2112 15.3776 12.885 15.6683 12.5 15.6683C12.07 15.6683 11.73 15.3224 11.73 14.8849V8.7802H6.94L6.73116 8.78512Z" fill="#200E32"/>
</svg>
